<?xml version="1.0" encoding="UTF-8" standalone="no"?><svg xmlns="http://www.w3.org/2000/svg" xmlns:xlink="http://www.w3.org/1999/xlink" clip-rule="evenodd" stroke-miterlimit="4.00" viewBox="0 0 601 70"><desc>SVG generated by Keynote</desc><defs></defs><g transform="matrix(1.00, 0.00, -0.00, -1.00, 0.0, 70.0)"><text xml:space="preserve" font-family="AvenirNextCondensed-Bold" font-weight="bold" font-size="88.0" fill="#34A4DA" transform="matrix(1.00, 0.00, -0.00, -1.00, -3.0, 4.0)">U</text><text xml:space="preserve" font-family="AvenirNextCondensed-Bold" font-weight="bold" font-size="88.0" fill="#34A4DA" transform="matrix(1.00, 0.00, -0.00, -1.00, 48.1, 4.0)">S</text><text xml:space="preserve" font-family="AvenirNextCondensed-Bold" font-weight="bold" font-size="88.0" fill="#34A4DA" transform="matrix(1.00, 0.00, -0.00, -1.00, 88.7, 4.0)">A</text><text xml:space="preserve" font-family="AvenirNextCondensed-Bold" font-weight="bold" font-size="88.0" fill="#34A4DA" transform="matrix(1.00, 0.00, -0.00, -1.00, 136.5, 4.0)">N</text><text xml:space="preserve" font-family="AvenirNextCondensed-Bold" font-weight="bold" font-size="88.0" fill="#34A4DA" transform="matrix(1.00, 0.00, -0.00, -1.00, 189.5, 4.0)">D</text><text xml:space="preserve" font-family="AvenirNextCondensed-Bold" font-weight="bold" font-size="88.0" fill="#34A4DA" transform="matrix(1.00, 0.00, -0.00, -1.00, 241.5, 4.0)">O</text><text xml:space="preserve" font-family="AvenirNextCondensed-Bold" font-weight="bold" font-size="88.0" fill="#34A4DA" transform="matrix(1.00, 0.00, -0.00, -1.00, 295.3, 4.0)"> </text><text xml:space="preserve" font-family="AvenirNextCondensed-Bold" font-weight="bold" font-size="88.0" fill="#34A4DA" transform="matrix(1.00, 0.00, -0.00, -1.00, 312.9, 4.0)">G</text><text xml:space="preserve" font-family="AvenirNextCondensed-Bold" font-weight="bold" font-size="88.0" fill="#34A4DA" transform="matrix(1.00, 0.00, -0.00, -1.00, 362.2, 4.0)">R</text><text xml:space="preserve" font-family="AvenirNextCondensed-Bold" font-weight="bold" font-size="88.0" fill="#34A4DA" transform="matrix(1.00, 0.00, -0.00, -1.00, 409.8, 4.0)">U</text><text xml:space="preserve" font-family="AvenirNextCondensed-Bold" font-weight="bold" font-size="88.0" fill="#34A4DA" transform="matrix(1.00, 0.00, -0.00, -1.00, 460.9, 4.0)">P</text><text xml:space="preserve" font-family="AvenirNextCondensed-Bold" font-weight="bold" font-size="88.0" fill="#34A4DA" transform="matrix(1.00, 0.00, -0.00, -1.00, 506.9, 4.0)">O</text><text xml:space="preserve" font-family="AvenirNextCondensed-Bold" font-weight="bold" font-size="88.0" fill="#34A4DA" transform="matrix(1.00, 0.00, -0.00, -1.00, 560.7, 4.0)">S</text></g></svg>