<?xml version="1.0" encoding="UTF-8" standalone="no"?><svg xmlns="http://www.w3.org/2000/svg" xmlns:xlink="http://www.w3.org/1999/xlink" clip-rule="evenodd" stroke-miterlimit="4.00" viewBox="0 0 962 32"><desc>SVG generated by Keynote</desc><defs></defs><g transform="matrix(1.00, 0.00, -0.00, -1.00, 0.0, 32.0)"><text xml:space="preserve" font-family="Menlo-Bold" font-weight="bold" font-size="28.0" fill="#FFFFFF" transform="matrix(1.00, 0.00, -0.00, -1.00, 0.5, 7.0)">&lt;</text><text xml:space="preserve" font-family="Menlo-Bold" font-weight="bold" font-size="28.0" fill="#FFFFFF" transform="matrix(1.00, 0.00, -0.00, -1.00, 16.2, 7.0)">u</text><text xml:space="preserve" font-family="Menlo-Bold" font-weight="bold" font-size="28.0" fill="#FFFFFF" transform="matrix(1.00, 0.00, -0.00, -1.00, 32.0, 7.0)">s</text><text xml:space="preserve" font-family="Menlo-Bold" font-weight="bold" font-size="28.0" fill="#FFFFFF" transform="matrix(1.00, 0.00, -0.00, -1.00, 47.7, 7.0)">e</text><text xml:space="preserve" font-family="Menlo-Bold" font-weight="bold" font-size="28.0" fill="#FFFFFF" transform="matrix(1.00, 0.00, -0.00, -1.00, 63.4, 7.0)"> </text><text xml:space="preserve" font-family="Menlo-Bold" font-weight="bold" font-size="28.0" fill="#CFDD00" transform="matrix(1.00, 0.00, -0.00, -1.00, 79.2, 7.0)">x</text><text xml:space="preserve" font-family="Menlo-Bold" font-weight="bold" font-size="28.0" fill="#CFDD00" transform="matrix(1.00, 0.00, -0.00, -1.00, 94.9, 7.0)">l</text><text xml:space="preserve" font-family="Menlo-Bold" font-weight="bold" font-size="28.0" fill="#CFDD00" transform="matrix(1.00, 0.00, -0.00, -1.00, 110.6, 7.0)">i</text><text xml:space="preserve" font-family="Menlo-Bold" font-weight="bold" font-size="28.0" fill="#CFDD00" transform="matrix(1.00, 0.00, -0.00, -1.00, 126.4, 7.0)">n</text><text xml:space="preserve" font-family="Menlo-Bold" font-weight="bold" font-size="28.0" fill="#CFDD00" transform="matrix(1.00, 0.00, -0.00, -1.00, 142.1, 7.0)">k</text><text xml:space="preserve" font-family="Menlo-Bold" font-weight="bold" font-size="28.0" fill="#CFDD00" transform="matrix(1.00, 0.00, -0.00, -1.00, 157.9, 7.0)">:</text><text xml:space="preserve" font-family="Menlo-Bold" font-weight="bold" font-size="28.0" fill="#CFDD00" transform="matrix(1.00, 0.00, -0.00, -1.00, 173.6, 7.0)">h</text><text xml:space="preserve" font-family="Menlo-Bold" font-weight="bold" font-size="28.0" fill="#CFDD00" transform="matrix(1.00, 0.00, -0.00, -1.00, 189.3, 7.0)">r</text><text xml:space="preserve" font-family="Menlo-Bold" font-weight="bold" font-size="28.0" fill="#CFDD00" transform="matrix(1.00, 0.00, -0.00, -1.00, 205.1, 7.0)">e</text><text xml:space="preserve" font-family="Menlo-Bold" font-weight="bold" font-size="28.0" fill="#CFDD00" transform="matrix(1.00, 0.00, -0.00, -1.00, 220.8, 7.0)">f</text><text xml:space="preserve" font-family="Menlo-Bold" font-weight="bold" font-size="28.0" fill="#CFDD00" transform="matrix(1.00, 0.00, -0.00, -1.00, 236.6, 7.0)">=</text><text xml:space="preserve" font-family="Menlo-Bold" font-weight="bold" font-size="28.0" fill="#CFDD00" transform="matrix(1.00, 0.00, -0.00, -1.00, 252.3, 7.0)">“</text><text xml:space="preserve" font-family="Menlo-Bold" font-weight="bold" font-size="28.0" fill="#CFDD00" transform="matrix(1.00, 0.00, -0.00, -1.00, 268.0, 7.0)">#</text><text xml:space="preserve" font-family="Menlo-Bold" font-weight="bold" font-size="28.0" fill="#CFDD00" transform="matrix(1.00, 0.00, -0.00, -1.00, 283.8, 7.0)">g</text><text xml:space="preserve" font-family="Menlo-Bold" font-weight="bold" font-size="28.0" fill="#CFDD00" transform="matrix(1.00, 0.00, -0.00, -1.00, 299.5, 7.0)">r</text><text xml:space="preserve" font-family="Menlo-Bold" font-weight="bold" font-size="28.0" fill="#CFDD00" transform="matrix(1.00, 0.00, -0.00, -1.00, 315.3, 7.0)">o</text><text xml:space="preserve" font-family="Menlo-Bold" font-weight="bold" font-size="28.0" fill="#CFDD00" transform="matrix(1.00, 0.00, -0.00, -1.00, 331.0, 7.0)">u</text><text xml:space="preserve" font-family="Menlo-Bold" font-weight="bold" font-size="28.0" fill="#CFDD00" transform="matrix(1.00, 0.00, -0.00, -1.00, 346.7, 7.0)">p</text><text xml:space="preserve" font-family="Menlo-Bold" font-weight="bold" font-size="28.0" fill="#CFDD00" transform="matrix(1.00, 0.00, -0.00, -1.00, 362.5, 7.0)">"</text><text xml:space="preserve" font-family="Menlo-Bold" font-weight="bold" font-size="28.0" fill="#CFDD00" transform="matrix(1.00, 0.00, -0.00, -1.00, 378.2, 7.0)"> </text><text xml:space="preserve" font-family="Menlo-Bold" font-weight="bold" font-size="28.0" fill="#CFDD00" transform="matrix(1.00, 0.00, -0.00, -1.00, 394.0, 7.0)">c</text><text xml:space="preserve" font-family="Menlo-Bold" font-weight="bold" font-size="28.0" fill="#CFDD00" transform="matrix(1.00, 0.00, -0.00, -1.00, 409.7, 7.0)">l</text><text xml:space="preserve" font-family="Menlo-Bold" font-weight="bold" font-size="28.0" fill="#CFDD00" transform="matrix(1.00, 0.00, -0.00, -1.00, 425.4, 7.0)">a</text><text xml:space="preserve" font-family="Menlo-Bold" font-weight="bold" font-size="28.0" fill="#CFDD00" transform="matrix(1.00, 0.00, -0.00, -1.00, 441.2, 7.0)">s</text><text xml:space="preserve" font-family="Menlo-Bold" font-weight="bold" font-size="28.0" fill="#CFDD00" transform="matrix(1.00, 0.00, -0.00, -1.00, 456.9, 7.0)">s</text><text xml:space="preserve" font-family="Menlo-Bold" font-weight="bold" font-size="28.0" fill="#CFDD00" transform="matrix(1.00, 0.00, -0.00, -1.00, 472.7, 7.0)">=</text><text xml:space="preserve" font-family="Menlo-Bold" font-weight="bold" font-size="28.0" fill="#CFDD00" transform="matrix(1.00, 0.00, -0.00, -1.00, 488.4, 7.0)">“</text><text xml:space="preserve" font-family="Menlo-Bold" font-weight="bold" font-size="28.0" fill="#CFDD00" transform="matrix(1.00, 0.00, -0.00, -1.00, 504.1, 7.0)">r</text><text xml:space="preserve" font-family="Menlo-Bold" font-weight="bold" font-size="28.0" fill="#CFDD00" transform="matrix(1.00, 0.00, -0.00, -1.00, 519.9, 7.0)">e</text><text xml:space="preserve" font-family="Menlo-Bold" font-weight="bold" font-size="28.0" fill="#CFDD00" transform="matrix(1.00, 0.00, -0.00, -1.00, 535.6, 7.0)">u</text><text xml:space="preserve" font-family="Menlo-Bold" font-weight="bold" font-size="28.0" fill="#CFDD00" transform="matrix(1.00, 0.00, -0.00, -1.00, 551.4, 7.0)">s</text><text xml:space="preserve" font-family="Menlo-Bold" font-weight="bold" font-size="28.0" fill="#CFDD00" transform="matrix(1.00, 0.00, -0.00, -1.00, 567.1, 7.0)">e</text><text xml:space="preserve" font-family="Menlo-Bold" font-weight="bold" font-size="28.0" fill="#CFDD00" transform="matrix(1.00, 0.00, -0.00, -1.00, 582.8, 7.0)">d</text><text xml:space="preserve" font-family="Menlo-Bold" font-weight="bold" font-size="28.0" fill="#CFDD00" transform="matrix(1.00, 0.00, -0.00, -1.00, 598.6, 7.0)">-</text><text xml:space="preserve" font-family="Menlo-Bold" font-weight="bold" font-size="28.0" fill="#CFDD00" transform="matrix(1.00, 0.00, -0.00, -1.00, 614.3, 7.0)">g</text><text xml:space="preserve" font-family="Menlo-Bold" font-weight="bold" font-size="28.0" fill="#CFDD00" transform="matrix(1.00, 0.00, -0.00, -1.00, 630.1, 7.0)">r</text><text xml:space="preserve" font-family="Menlo-Bold" font-weight="bold" font-size="28.0" fill="#CFDD00" transform="matrix(1.00, 0.00, -0.00, -1.00, 645.8, 7.0)">o</text><text xml:space="preserve" font-family="Menlo-Bold" font-weight="bold" font-size="28.0" fill="#CFDD00" transform="matrix(1.00, 0.00, -0.00, -1.00, 661.6, 7.0)">u</text><text xml:space="preserve" font-family="Menlo-Bold" font-weight="bold" font-size="28.0" fill="#CFDD00" transform="matrix(1.00, 0.00, -0.00, -1.00, 677.3, 7.0)">p</text><text xml:space="preserve" font-family="Menlo-Bold" font-weight="bold" font-size="28.0" fill="#CFDD00" transform="matrix(1.00, 0.00, -0.00, -1.00, 693.0, 7.0)">"</text><text xml:space="preserve" font-family="Menlo-Bold" font-weight="bold" font-size="28.0" fill="#FFFFFF" transform="matrix(1.00, 0.00, -0.00, -1.00, 708.7, 7.0)"> </text><text xml:space="preserve" font-family="Menlo-Bold" font-weight="bold" font-size="28.0" fill="#FFFFFF" transform="matrix(1.00, 0.00, -0.00, -1.00, 724.4, 7.0)">x</text><text xml:space="preserve" font-family="Menlo-Bold" font-weight="bold" font-size="28.0" fill="#FFFFFF" transform="matrix(1.00, 0.00, -0.00, -1.00, 740.1, 7.0)">=</text><text xml:space="preserve" font-family="Menlo-Bold" font-weight="bold" font-size="28.0" fill="#FFFFFF" transform="matrix(1.00, 0.00, -0.00, -1.00, 755.9, 7.0)">"</text><text xml:space="preserve" font-family="Menlo-Bold" font-weight="bold" font-size="28.0" fill="#FFFFFF" transform="matrix(1.00, 0.00, -0.00, -1.00, 771.6, 7.0)">7</text><text xml:space="preserve" font-family="Menlo-Bold" font-weight="bold" font-size="28.0" fill="#FFFFFF" transform="matrix(1.00, 0.00, -0.00, -1.00, 787.4, 7.0)">9</text><text xml:space="preserve" font-family="Menlo-Bold" font-weight="bold" font-size="28.0" fill="#FFFFFF" transform="matrix(1.00, 0.00, -0.00, -1.00, 803.1, 7.0)">0</text><text xml:space="preserve" font-family="Menlo-Bold" font-weight="bold" font-size="28.0" fill="#FFFFFF" transform="matrix(1.00, 0.00, -0.00, -1.00, 818.8, 7.0)">"</text><text xml:space="preserve" font-family="Menlo-Bold" font-weight="bold" font-size="28.0" fill="#FFFFFF" transform="matrix(1.00, 0.00, -0.00, -1.00, 834.6, 7.0)"> </text><text xml:space="preserve" font-family="Menlo-Bold" font-weight="bold" font-size="28.0" fill="#FFFFFF" transform="matrix(1.00, 0.00, -0.00, -1.00, 850.3, 7.0)">y</text><text xml:space="preserve" font-family="Menlo-Bold" font-weight="bold" font-size="28.0" fill="#FFFFFF" transform="matrix(1.00, 0.00, -0.00, -1.00, 866.1, 7.0)">=</text><text xml:space="preserve" font-family="Menlo-Bold" font-weight="bold" font-size="28.0" fill="#FFFFFF" transform="matrix(1.00, 0.00, -0.00, -1.00, 881.8, 7.0)">"</text><text xml:space="preserve" font-family="Menlo-Bold" font-weight="bold" font-size="28.0" fill="#FFFFFF" transform="matrix(1.00, 0.00, -0.00, -1.00, 897.5, 7.0)">0</text><text xml:space="preserve" font-family="Menlo-Bold" font-weight="bold" font-size="28.0" fill="#FFFFFF" transform="matrix(1.00, 0.00, -0.00, -1.00, 913.3, 7.0)">"</text><text xml:space="preserve" font-family="Menlo-Bold" font-weight="bold" font-size="28.0" fill="#FFFFFF" transform="matrix(1.00, 0.00, -0.00, -1.00, 929.0, 7.0)">/</text><text xml:space="preserve" font-family="Menlo-Bold" font-weight="bold" font-size="28.0" fill="#FFFFFF" transform="matrix(1.00, 0.00, -0.00, -1.00, 944.8, 7.0)">&gt;</text></g></svg>