<?xml version="1.0" encoding="UTF-8" standalone="no"?><svg xmlns="http://www.w3.org/2000/svg" xmlns:xlink="http://www.w3.org/1999/xlink" clip-rule="evenodd" stroke-miterlimit="4.00" viewBox="0 0 175 25"><desc>SVG generated by Keynote</desc><defs></defs><g transform="matrix(1.00, 0.00, -0.00, -1.00, 0.0, 25.0)"><text xml:space="preserve" font-family="Menlo-Regular" font-size="28.0" fill="#838686" transform="matrix(1.00, 0.00, -0.00, -1.00, 0.9, 2.0)">4</text><text xml:space="preserve" font-family="Menlo-Regular" font-size="28.0" fill="#838686" transform="matrix(1.00, 0.00, -0.00, -1.00, 16.7, 2.0)">5</text><text xml:space="preserve" font-family="Menlo-Regular" font-size="28.0" fill="#838686" transform="matrix(1.00, 0.00, -0.00, -1.00, 32.4, 2.0)">9</text><text xml:space="preserve" font-family="Menlo-Regular" font-size="28.0" fill="#838686" transform="matrix(1.00, 0.00, -0.00, -1.00, 48.1, 2.0)">.</text><text xml:space="preserve" font-family="Menlo-Regular" font-size="28.0" fill="#838686" transform="matrix(1.00, 0.00, -0.00, -1.00, 63.9, 2.0)">7</text><text xml:space="preserve" font-family="Menlo-Regular" font-size="28.0" fill="#838686" transform="matrix(1.00, 0.00, -0.00, -1.00, 79.6, 2.0)"> </text><text xml:space="preserve" font-family="Menlo-Regular" font-size="28.0" fill="#838686" transform="matrix(1.00, 0.00, -0.00, -1.00, 95.4, 2.0)">1</text><text xml:space="preserve" font-family="Menlo-Regular" font-size="28.0" fill="#838686" transform="matrix(1.00, 0.00, -0.00, -1.00, 111.1, 2.0)">5</text><text xml:space="preserve" font-family="Menlo-Regular" font-size="28.0" fill="#838686" transform="matrix(1.00, 0.00, -0.00, -1.00, 126.8, 2.0)">0</text><text xml:space="preserve" font-family="Menlo-Regular" font-size="28.0" fill="#838686" transform="matrix(1.00, 0.00, -0.00, -1.00, 142.6, 2.0)">.</text><text xml:space="preserve" font-family="Menlo-Regular" font-size="28.0" fill="#838686" transform="matrix(1.00, 0.00, -0.00, -1.00, 158.3, 2.0)">3</text></g></svg>