<?xml version="1.0" encoding="UTF-8" standalone="no"?><svg xmlns="http://www.w3.org/2000/svg" xmlns:xlink="http://www.w3.org/1999/xlink" clip-rule="evenodd" stroke-miterlimit="4.00" viewBox="0 0 1168 32"><desc>SVG generated by Keynote</desc><defs></defs><g transform="matrix(1.00, 0.00, -0.00, -1.00, 0.0, 32.0)"><text xml:space="preserve" font-family="Menlo-Regular" font-size="28.0" fill="#838686" transform="matrix(1.00, 0.00, -0.00, -1.00, 1.0, 9.0)">&lt;</text><text xml:space="preserve" font-family="Menlo-Regular" font-size="28.0" fill="#838686" transform="matrix(1.00, 0.00, -0.00, -1.00, 16.7, 9.0)">s</text><text xml:space="preserve" font-family="Menlo-Regular" font-size="28.0" fill="#838686" transform="matrix(1.00, 0.00, -0.00, -1.00, 32.5, 9.0)">v</text><text xml:space="preserve" font-family="Menlo-Regular" font-size="28.0" fill="#838686" transform="matrix(1.00, 0.00, -0.00, -1.00, 48.2, 9.0)">g</text><text xml:space="preserve" font-family="Menlo-Regular" font-size="28.0" fill="#838686" transform="matrix(1.00, 0.00, -0.00, -1.00, 64.0, 9.0)"> </text><text xml:space="preserve" font-family="Menlo-Regular" font-size="28.0" fill="#838686" transform="matrix(1.00, 0.00, -0.00, -1.00, 79.7, 9.0)">c</text><text xml:space="preserve" font-family="Menlo-Regular" font-size="28.0" fill="#838686" transform="matrix(1.00, 0.00, -0.00, -1.00, 95.4, 9.0)">l</text><text xml:space="preserve" font-family="Menlo-Regular" font-size="28.0" fill="#838686" transform="matrix(1.00, 0.00, -0.00, -1.00, 111.2, 9.0)">a</text><text xml:space="preserve" font-family="Menlo-Regular" font-size="28.0" fill="#838686" transform="matrix(1.00, 0.00, -0.00, -1.00, 126.9, 9.0)">s</text><text xml:space="preserve" font-family="Menlo-Regular" font-size="28.0" fill="#838686" transform="matrix(1.00, 0.00, -0.00, -1.00, 142.7, 9.0)">s</text><text xml:space="preserve" font-family="Menlo-Regular" font-size="28.0" fill="#838686" transform="matrix(1.00, 0.00, -0.00, -1.00, 158.4, 9.0)">=</text><text xml:space="preserve" font-family="Menlo-Regular" font-size="28.0" fill="#838686" transform="matrix(1.00, 0.00, -0.00, -1.00, 174.1, 9.0)">"</text><text xml:space="preserve" font-family="Menlo-Regular" font-size="28.0" fill="#838686" transform="matrix(1.00, 0.00, -0.00, -1.00, 189.9, 9.0)">s</text><text xml:space="preserve" font-family="Menlo-Regular" font-size="28.0" fill="#838686" transform="matrix(1.00, 0.00, -0.00, -1.00, 205.6, 9.0)">v</text><text xml:space="preserve" font-family="Menlo-Regular" font-size="28.0" fill="#838686" transform="matrix(1.00, 0.00, -0.00, -1.00, 221.4, 9.0)">g</text><text xml:space="preserve" font-family="Menlo-Regular" font-size="28.0" fill="#838686" transform="matrix(1.00, 0.00, -0.00, -1.00, 237.1, 9.0)">"</text><text xml:space="preserve" font-family="Menlo-Regular" font-size="28.0" fill="#838686" transform="matrix(1.00, 0.00, -0.00, -1.00, 252.8, 9.0)"> </text><text xml:space="preserve" font-family="Menlo-Regular" font-size="28.0" fill="#838686" transform="matrix(1.00, 0.00, -0.00, -1.00, 268.6, 9.0)">x</text><text xml:space="preserve" font-family="Menlo-Regular" font-size="28.0" fill="#838686" transform="matrix(1.00, 0.00, -0.00, -1.00, 284.3, 9.0)">m</text><text xml:space="preserve" font-family="Menlo-Regular" font-size="28.0" fill="#838686" transform="matrix(1.00, 0.00, -0.00, -1.00, 300.1, 9.0)">l</text><text xml:space="preserve" font-family="Menlo-Regular" font-size="28.0" fill="#838686" transform="matrix(1.00, 0.00, -0.00, -1.00, 315.8, 9.0)">n</text><text xml:space="preserve" font-family="Menlo-Regular" font-size="28.0" fill="#838686" transform="matrix(1.00, 0.00, -0.00, -1.00, 331.5, 9.0)">s</text><text xml:space="preserve" font-family="Menlo-Regular" font-size="28.0" fill="#838686" transform="matrix(1.00, 0.00, -0.00, -1.00, 347.3, 9.0)">=</text><text xml:space="preserve" font-family="Menlo-Regular" font-size="28.0" fill="#838686" transform="matrix(1.00, 0.00, -0.00, -1.00, 363.0, 9.0)">"</text><text xml:space="preserve" font-family="Menlo-Regular" font-size="28.0" fill="#838686" transform="matrix(1.00, 0.00, -0.00, -1.00, 378.8, 9.0)">h</text><text xml:space="preserve" font-family="Menlo-Regular" font-size="28.0" fill="#838686" transform="matrix(1.00, 0.00, -0.00, -1.00, 394.5, 9.0)">t</text><text xml:space="preserve" font-family="Menlo-Regular" font-size="28.0" fill="#838686" transform="matrix(1.00, 0.00, -0.00, -1.00, 410.2, 9.0)">t</text><text xml:space="preserve" font-family="Menlo-Regular" font-size="28.0" fill="#838686" transform="matrix(1.00, 0.00, -0.00, -1.00, 426.0, 9.0)">p</text><text xml:space="preserve" font-family="Menlo-Regular" font-size="28.0" fill="#838686" transform="matrix(1.00, 0.00, -0.00, -1.00, 441.7, 9.0)">:</text><text xml:space="preserve" font-family="Menlo-Regular" font-size="28.0" fill="#838686" transform="matrix(1.00, 0.00, -0.00, -1.00, 457.5, 9.0)">/</text><text xml:space="preserve" font-family="Menlo-Regular" font-size="28.0" fill="#838686" transform="matrix(1.00, 0.00, -0.00, -1.00, 473.2, 9.0)">/</text><text xml:space="preserve" font-family="Menlo-Regular" font-size="28.0" fill="#838686" transform="matrix(1.00, 0.00, -0.00, -1.00, 488.9, 9.0)">w</text><text xml:space="preserve" font-family="Menlo-Regular" font-size="28.0" fill="#838686" transform="matrix(1.00, 0.00, -0.00, -1.00, 504.7, 9.0)">w</text><text xml:space="preserve" font-family="Menlo-Regular" font-size="28.0" fill="#838686" transform="matrix(1.00, 0.00, -0.00, -1.00, 520.4, 9.0)">w</text><text xml:space="preserve" font-family="Menlo-Regular" font-size="28.0" fill="#838686" transform="matrix(1.00, 0.00, -0.00, -1.00, 536.2, 9.0)">.</text><text xml:space="preserve" font-family="Menlo-Regular" font-size="28.0" fill="#838686" transform="matrix(1.00, 0.00, -0.00, -1.00, 551.9, 9.0)">w</text><text xml:space="preserve" font-family="Menlo-Regular" font-size="28.0" fill="#838686" transform="matrix(1.00, 0.00, -0.00, -1.00, 567.6, 9.0)">3</text><text xml:space="preserve" font-family="Menlo-Regular" font-size="28.0" fill="#838686" transform="matrix(1.00, 0.00, -0.00, -1.00, 583.4, 9.0)">.</text><text xml:space="preserve" font-family="Menlo-Regular" font-size="28.0" fill="#838686" transform="matrix(1.00, 0.00, -0.00, -1.00, 599.1, 9.0)">o</text><text xml:space="preserve" font-family="Menlo-Regular" font-size="28.0" fill="#838686" transform="matrix(1.00, 0.00, -0.00, -1.00, 614.9, 9.0)">r</text><text xml:space="preserve" font-family="Menlo-Regular" font-size="28.0" fill="#838686" transform="matrix(1.00, 0.00, -0.00, -1.00, 630.6, 9.0)">g</text><text xml:space="preserve" font-family="Menlo-Regular" font-size="28.0" fill="#838686" transform="matrix(1.00, 0.00, -0.00, -1.00, 646.3, 9.0)">/</text><text xml:space="preserve" font-family="Menlo-Regular" font-size="28.0" fill="#838686" transform="matrix(1.00, 0.00, -0.00, -1.00, 662.1, 9.0)">2</text><text xml:space="preserve" font-family="Menlo-Regular" font-size="28.0" fill="#838686" transform="matrix(1.00, 0.00, -0.00, -1.00, 677.8, 9.0)">0</text><text xml:space="preserve" font-family="Menlo-Regular" font-size="28.0" fill="#838686" transform="matrix(1.00, 0.00, -0.00, -1.00, 693.6, 9.0)">0</text><text xml:space="preserve" font-family="Menlo-Regular" font-size="28.0" fill="#838686" transform="matrix(1.00, 0.00, -0.00, -1.00, 709.3, 9.0)">0</text><text xml:space="preserve" font-family="Menlo-Regular" font-size="28.0" fill="#838686" transform="matrix(1.00, 0.00, -0.00, -1.00, 725.1, 9.0)">/</text><text xml:space="preserve" font-family="Menlo-Regular" font-size="28.0" fill="#838686" transform="matrix(1.00, 0.00, -0.00, -1.00, 740.8, 9.0)">s</text><text xml:space="preserve" font-family="Menlo-Regular" font-size="28.0" fill="#838686" transform="matrix(1.00, 0.00, -0.00, -1.00, 756.5, 9.0)">v</text><text xml:space="preserve" font-family="Menlo-Regular" font-size="28.0" fill="#838686" transform="matrix(1.00, 0.00, -0.00, -1.00, 772.3, 9.0)">g</text><text xml:space="preserve" font-family="Menlo-Regular" font-size="28.0" fill="#838686" transform="matrix(1.00, 0.00, -0.00, -1.00, 788.0, 9.0)">"</text><text xml:space="preserve" font-family="Menlo-Regular" font-size="28.0" fill="#838686" transform="matrix(1.00, 0.00, -0.00, -1.00, 803.8, 9.0)"> </text><text xml:space="preserve" font-family="Menlo-Regular" font-size="28.0" fill="#838686" transform="matrix(1.00, 0.00, -0.00, -1.00, 819.5, 9.0)">v</text><text xml:space="preserve" font-family="Menlo-Regular" font-size="28.0" fill="#838686" transform="matrix(1.00, 0.00, -0.00, -1.00, 835.2, 9.0)">i</text><text xml:space="preserve" font-family="Menlo-Regular" font-size="28.0" fill="#838686" transform="matrix(1.00, 0.00, -0.00, -1.00, 851.0, 9.0)">e</text><text xml:space="preserve" font-family="Menlo-Regular" font-size="28.0" fill="#838686" transform="matrix(1.00, 0.00, -0.00, -1.00, 866.7, 9.0)">w</text><text xml:space="preserve" font-family="Menlo-Regular" font-size="28.0" fill="#838686" transform="matrix(1.00, 0.00, -0.00, -1.00, 882.5, 9.0)">B</text><text xml:space="preserve" font-family="Menlo-Regular" font-size="28.0" fill="#838686" transform="matrix(1.00, 0.00, -0.00, -1.00, 898.2, 9.0)">o</text><text xml:space="preserve" font-family="Menlo-Regular" font-size="28.0" fill="#838686" transform="matrix(1.00, 0.00, -0.00, -1.00, 913.9, 9.0)">x</text><text xml:space="preserve" font-family="Menlo-Regular" font-size="28.0" fill="#838686" transform="matrix(1.00, 0.00, -0.00, -1.00, 929.7, 9.0)">=</text><text xml:space="preserve" font-family="Menlo-Regular" font-size="28.0" fill="#838686" transform="matrix(1.00, 0.00, -0.00, -1.00, 945.4, 9.0)">"</text><text xml:space="preserve" font-family="Menlo-Regular" font-size="28.0" fill="#838686" transform="matrix(1.00, 0.00, -0.00, -1.00, 961.2, 9.0)">0</text><text xml:space="preserve" font-family="Menlo-Regular" font-size="28.0" fill="#838686" transform="matrix(1.00, 0.00, -0.00, -1.00, 976.9, 9.0)"> </text><text xml:space="preserve" font-family="Menlo-Regular" font-size="28.0" fill="#838686" transform="matrix(1.00, 0.00, -0.00, -1.00, 992.6, 9.0)">0</text><text xml:space="preserve" font-family="Menlo-Regular" font-size="28.0" fill="#838686" transform="matrix(1.00, 0.00, -0.00, -1.00, 1008.4, 9.0)"> </text><text xml:space="preserve" font-family="Menlo-Regular" font-size="28.0" fill="#838686" transform="matrix(1.00, 0.00, -0.00, -1.00, 1024.1, 9.0)">6</text><text xml:space="preserve" font-family="Menlo-Regular" font-size="28.0" fill="#838686" transform="matrix(1.00, 0.00, -0.00, -1.00, 1039.9, 9.0)">0</text><text xml:space="preserve" font-family="Menlo-Regular" font-size="28.0" fill="#838686" transform="matrix(1.00, 0.00, -0.00, -1.00, 1055.6, 9.0)">0</text><text xml:space="preserve" font-family="Menlo-Regular" font-size="28.0" fill="#838686" transform="matrix(1.00, 0.00, -0.00, -1.00, 1071.3, 9.0)"> </text><text xml:space="preserve" font-family="Menlo-Regular" font-size="28.0" fill="#838686" transform="matrix(1.00, 0.00, -0.00, -1.00, 1087.1, 9.0)">2</text><text xml:space="preserve" font-family="Menlo-Regular" font-size="28.0" fill="#838686" transform="matrix(1.00, 0.00, -0.00, -1.00, 1102.8, 9.0)">0</text><text xml:space="preserve" font-family="Menlo-Regular" font-size="28.0" fill="#838686" transform="matrix(1.00, 0.00, -0.00, -1.00, 1118.6, 9.0)">0</text><text xml:space="preserve" font-family="Menlo-Regular" font-size="28.0" fill="#838686" transform="matrix(1.00, 0.00, -0.00, -1.00, 1134.3, 9.0)">"</text><text xml:space="preserve" font-family="Menlo-Regular" font-size="28.0" fill="#838686" transform="matrix(1.00, 0.00, -0.00, -1.00, 1150.0, 9.0)">&gt;</text></g></svg>