<?xml version="1.0" encoding="UTF-8" standalone="no"?><svg xmlns="http://www.w3.org/2000/svg" xmlns:xlink="http://www.w3.org/1999/xlink" clip-rule="evenodd" stroke-miterlimit="4.00" viewBox="0 0 765 131"><desc>SVG generated by Keynote</desc><defs></defs><g transform="matrix(1.00, 0.00, -0.00, -1.00, 0.0, 131.0)"><text xml:space="preserve" font-family="LucidaGrande" font-size="63.0" fill="#34A4DA" transform="matrix(1.00, 0.00, -0.00, -1.00, 0.2, 69.9)">▸</text><text xml:space="preserve" font-family="AvenirNext-Bold" font-weight="bold" font-size="60.0" fill="#FEFFFE" transform="matrix(1.00, 0.00, -0.00, -1.00, 48.0, 75.0)">S</text><text xml:space="preserve" font-family="AvenirNext-Medium" font-size="60.0" fill="#FEFFFE" transform="matrix(1.00, 0.00, -0.00, -1.00, 83.5, 75.0)">c</text><text xml:space="preserve" font-family="AvenirNext-Medium" font-size="60.0" fill="#FEFFFE" transform="matrix(1.00, 0.00, -0.00, -1.00, 113.1, 75.0)">a</text><text xml:space="preserve" font-family="AvenirNext-Medium" font-size="60.0" fill="#FEFFFE" transform="matrix(1.00, 0.00, -0.00, -1.00, 145.6, 75.0)">l</text><text xml:space="preserve" font-family="AvenirNext-Medium" font-size="60.0" fill="#FEFFFE" transform="matrix(1.00, 0.00, -0.00, -1.00, 161.2, 75.0)">a</text><text xml:space="preserve" font-family="AvenirNext-Medium" font-size="60.0" fill="#FEFFFE" transform="matrix(1.00, 0.00, -0.00, -1.00, 193.7, 75.0)">b</text><text xml:space="preserve" font-family="AvenirNext-Medium" font-size="60.0" fill="#FEFFFE" transform="matrix(1.00, 0.00, -0.00, -1.00, 231.9, 75.0)">l</text><text xml:space="preserve" font-family="AvenirNext-Medium" font-size="60.0" fill="#FEFFFE" transform="matrix(1.00, 0.00, -0.00, -1.00, 247.5, 75.0)">e</text><text xml:space="preserve" font-family="AvenirNext-Medium" font-size="60.0" fill="#FEFFFE" transform="matrix(1.00, 0.00, -0.00, -1.00, 281.9, 75.0)"> </text><text xml:space="preserve" font-family="AvenirNext-Bold" font-weight="bold" font-size="60.0" fill="#FEFFFE" transform="matrix(1.00, 0.00, -0.00, -1.00, 296.9, 75.0)">V</text><text xml:space="preserve" font-family="AvenirNext-Medium" font-size="60.0" fill="#FEFFFE" transform="matrix(1.00, 0.00, -0.00, -1.00, 337.8, 75.0)">e</text><text xml:space="preserve" font-family="AvenirNext-Medium" font-size="60.0" fill="#FEFFFE" transform="matrix(1.00, 0.00, -0.00, -1.00, 372.2, 75.0)">c</text><text xml:space="preserve" font-family="AvenirNext-Medium" font-size="60.0" fill="#FEFFFE" transform="matrix(1.00, 0.00, -0.00, -1.00, 401.8, 75.0)">t</text><text xml:space="preserve" font-family="AvenirNext-Medium" font-size="60.0" fill="#FEFFFE" transform="matrix(1.00, 0.00, -0.00, -1.00, 421.6, 75.0)">o</text><text xml:space="preserve" font-family="AvenirNext-Medium" font-size="60.0" fill="#FEFFFE" transform="matrix(1.00, 0.00, -0.00, -1.00, 458.2, 75.0)">r</text><text xml:space="preserve" font-family="AvenirNext-Medium" font-size="60.0" fill="#FEFFFE" transform="matrix(1.00, 0.00, -0.00, -1.00, 479.9, 75.0)"> </text><text xml:space="preserve" font-family="AvenirNext-Bold" font-weight="bold" font-size="60.0" fill="#FEFFFE" transform="matrix(1.00, 0.00, -0.00, -1.00, 494.9, 75.0)">G</text><text xml:space="preserve" font-family="AvenirNext-Medium" font-size="60.0" fill="#FEFFFE" transform="matrix(1.00, 0.00, -0.00, -1.00, 541.0, 75.0)">r</text><text xml:space="preserve" font-family="AvenirNext-Medium" font-size="60.0" fill="#FEFFFE" transform="matrix(1.00, 0.00, -0.00, -1.00, 562.0, 75.0)">a</text><text xml:space="preserve" font-family="AvenirNext-Medium" font-size="60.0" fill="#FEFFFE" transform="matrix(1.00, 0.00, -0.00, -1.00, 594.5, 75.0)">p</text><text xml:space="preserve" font-family="AvenirNext-Medium" font-size="60.0" fill="#FEFFFE" transform="matrix(1.00, 0.00, -0.00, -1.00, 632.5, 75.0)">h</text><text xml:space="preserve" font-family="AvenirNext-Medium" font-size="60.0" fill="#FEFFFE" transform="matrix(1.00, 0.00, -0.00, -1.00, 667.6, 75.0)">i</text><text xml:space="preserve" font-family="AvenirNext-Medium" font-size="60.0" fill="#FEFFFE" transform="matrix(1.00, 0.00, -0.00, -1.00, 683.1, 75.0)">c</text><text xml:space="preserve" font-family="AvenirNext-Medium" font-size="60.0" fill="#FEFFFE" transform="matrix(1.00, 0.00, -0.00, -1.00, 712.7, 75.0)">s</text><text xml:space="preserve" font-family="AvenirNext-Medium" font-size="60.0" fill="#FEFFFE" transform="matrix(1.00, 0.00, -0.00, -1.00, 739.4, 75.0)"> </text><text xml:space="preserve" font-family="LucidaGrande-Bold" font-weight="bold" font-size="60.0" fill="#FEFFFE" transform="matrix(1.00, 0.00, -0.00, -1.00, 754.4, 75.0)"> </text><text xml:space="preserve" font-family="AvenirNext-Medium" font-size="50.0" fill="#FEFFFE" transform="matrix(1.00, 0.00, -0.00, -1.00, 48.0, 3.0)">o</text><text xml:space="preserve" font-family="AvenirNext-Medium" font-size="50.0" fill="#FEFFFE" transform="matrix(1.00, 0.00, -0.00, -1.00, 78.5, 3.0)">u</text><text xml:space="preserve" font-family="AvenirNext-Medium" font-size="50.0" fill="#FEFFFE" transform="matrix(1.00, 0.00, -0.00, -1.00, 107.6, 3.0)"> </text><text xml:space="preserve" font-family="AvenirNext-Medium" font-size="50.0" fill="#FEFFFE" transform="matrix(1.00, 0.00, -0.00, -1.00, 120.1, 3.0)">G</text><text xml:space="preserve" font-family="AvenirNext-Medium" font-size="50.0" fill="#FEFFFE" transform="matrix(1.00, 0.00, -0.00, -1.00, 159.0, 3.0)">r</text><text xml:space="preserve" font-family="AvenirNext-Medium" font-size="50.0" fill="#FEFFFE" transform="matrix(1.00, 0.00, -0.00, -1.00, 176.4, 3.0)">á</text><text xml:space="preserve" font-family="AvenirNext-Medium" font-size="50.0" fill="#FEFFFE" transform="matrix(1.00, 0.00, -0.00, -1.00, 203.5, 3.0)">ﬁ</text><text xml:space="preserve" font-family="AvenirNext-Medium" font-size="50.0" fill="#FEFFFE" transform="matrix(1.00, 0.00, -0.00, -1.00, 232.2, 3.0)">c</text><text xml:space="preserve" font-family="AvenirNext-Medium" font-size="50.0" fill="#FEFFFE" transform="matrix(1.00, 0.00, -0.00, -1.00, 256.9, 3.0)">o</text><text xml:space="preserve" font-family="AvenirNext-Medium" font-size="50.0" fill="#FEFFFE" transform="matrix(1.00, 0.00, -0.00, -1.00, 287.4, 3.0)">s</text><text xml:space="preserve" font-family="AvenirNext-Medium" font-size="50.0" fill="#FEFFFE" transform="matrix(1.00, 0.00, -0.00, -1.00, 309.6, 3.0)"> </text><text xml:space="preserve" font-family="AvenirNext-Medium" font-size="50.0" fill="#FEFFFE" transform="matrix(1.00, 0.00, -0.00, -1.00, 321.2, 3.0)">V</text><text xml:space="preserve" font-family="AvenirNext-Medium" font-size="50.0" fill="#FEFFFE" transform="matrix(1.00, 0.00, -0.00, -1.00, 351.2, 3.0)">e</text><text xml:space="preserve" font-family="AvenirNext-Medium" font-size="50.0" fill="#FEFFFE" transform="matrix(1.00, 0.00, -0.00, -1.00, 379.9, 3.0)">t</text><text xml:space="preserve" font-family="AvenirNext-Medium" font-size="50.0" fill="#FEFFFE" transform="matrix(1.00, 0.00, -0.00, -1.00, 396.3, 3.0)">o</text><text xml:space="preserve" font-family="AvenirNext-Medium" font-size="50.0" fill="#FEFFFE" transform="matrix(1.00, 0.00, -0.00, -1.00, 426.8, 3.0)">r</text><text xml:space="preserve" font-family="AvenirNext-Medium" font-size="50.0" fill="#FEFFFE" transform="matrix(1.00, 0.00, -0.00, -1.00, 444.9, 3.0)">i</text><text xml:space="preserve" font-family="AvenirNext-Medium" font-size="50.0" fill="#FEFFFE" transform="matrix(1.00, 0.00, -0.00, -1.00, 457.9, 3.0)">a</text><text xml:space="preserve" font-family="AvenirNext-Medium" font-size="50.0" fill="#FEFFFE" transform="matrix(1.00, 0.00, -0.00, -1.00, 485.0, 3.0)">i</text><text xml:space="preserve" font-family="AvenirNext-Medium" font-size="50.0" fill="#FEFFFE" transform="matrix(1.00, 0.00, -0.00, -1.00, 497.9, 3.0)">s</text><text xml:space="preserve" font-family="AvenirNext-Medium" font-size="50.0" fill="#FEFFFE" transform="matrix(1.00, 0.00, -0.00, -1.00, 520.1, 3.0)"> </text><text xml:space="preserve" font-family="AvenirNext-Medium" font-size="50.0" fill="#FEFFFE" transform="matrix(1.00, 0.00, -0.00, -1.00, 532.6, 3.0)">E</text><text xml:space="preserve" font-family="AvenirNext-Medium" font-size="50.0" fill="#FEFFFE" transform="matrix(1.00, 0.00, -0.00, -1.00, 562.7, 3.0)">s</text><text xml:space="preserve" font-family="AvenirNext-Medium" font-size="50.0" fill="#FEFFFE" transform="matrix(1.00, 0.00, -0.00, -1.00, 584.9, 3.0)">c</text><text xml:space="preserve" font-family="AvenirNext-Medium" font-size="50.0" fill="#FEFFFE" transform="matrix(1.00, 0.00, -0.00, -1.00, 609.6, 3.0)">a</text><text xml:space="preserve" font-family="AvenirNext-Medium" font-size="50.0" fill="#FEFFFE" transform="matrix(1.00, 0.00, -0.00, -1.00, 636.7, 3.0)">l</text><text xml:space="preserve" font-family="AvenirNext-Medium" font-size="50.0" fill="#FEFFFE" transform="matrix(1.00, 0.00, -0.00, -1.00, 649.7, 3.0)">á</text><text xml:space="preserve" font-family="AvenirNext-Medium" font-size="50.0" fill="#FEFFFE" transform="matrix(1.00, 0.00, -0.00, -1.00, 676.8, 3.0)">v</text><text xml:space="preserve" font-family="AvenirNext-Medium" font-size="50.0" fill="#FEFFFE" transform="matrix(1.00, 0.00, -0.00, -1.00, 702.0, 3.0)">e</text><text xml:space="preserve" font-family="AvenirNext-Medium" font-size="50.0" fill="#FEFFFE" transform="matrix(1.00, 0.00, -0.00, -1.00, 730.7, 3.0)">i</text><text xml:space="preserve" font-family="AvenirNext-Medium" font-size="50.0" fill="#FEFFFE" transform="matrix(1.00, 0.00, -0.00, -1.00, 743.6, 3.0)">s</text></g></svg>