<?xml version="1.0" encoding="UTF-8" standalone="no"?><svg xmlns="http://www.w3.org/2000/svg" xmlns:xlink="http://www.w3.org/1999/xlink" clip-rule="evenodd" stroke-miterlimit="4.00" viewBox="0 0 717 44"><desc>SVG generated by Keynote</desc><defs></defs><g transform="matrix(1.00, 0.00, -0.00, -1.00, 0.0, 44.0)"><text xml:space="preserve" font-family="AvenirNext-Medium" font-size="50.0" fill="#FEFFFE" transform="matrix(1.00, 0.00, -0.00, -1.00, 0.0, 3.0)">o</text><text xml:space="preserve" font-family="AvenirNext-Medium" font-size="50.0" fill="#FEFFFE" transform="matrix(1.00, 0.00, -0.00, -1.00, 30.5, 3.0)">u</text><text xml:space="preserve" font-family="AvenirNext-Medium" font-size="50.0" fill="#FEFFFE" transform="matrix(1.00, 0.00, -0.00, -1.00, 59.6, 3.0)"> </text><text xml:space="preserve" font-family="AvenirNext-Medium" font-size="50.0" fill="#FEFFFE" transform="matrix(1.00, 0.00, -0.00, -1.00, 72.1, 3.0)">G</text><text xml:space="preserve" font-family="AvenirNext-Medium" font-size="50.0" fill="#FEFFFE" transform="matrix(1.00, 0.00, -0.00, -1.00, 111.0, 3.0)">r</text><text xml:space="preserve" font-family="AvenirNext-Medium" font-size="50.0" fill="#FEFFFE" transform="matrix(1.00, 0.00, -0.00, -1.00, 128.4, 3.0)">á</text><text xml:space="preserve" font-family="AvenirNext-Medium" font-size="50.0" fill="#FEFFFE" transform="matrix(1.00, 0.00, -0.00, -1.00, 155.5, 3.0)">ﬁ</text><text xml:space="preserve" font-family="AvenirNext-Medium" font-size="50.0" fill="#FEFFFE" transform="matrix(1.00, 0.00, -0.00, -1.00, 184.2, 3.0)">c</text><text xml:space="preserve" font-family="AvenirNext-Medium" font-size="50.0" fill="#FEFFFE" transform="matrix(1.00, 0.00, -0.00, -1.00, 208.9, 3.0)">o</text><text xml:space="preserve" font-family="AvenirNext-Medium" font-size="50.0" fill="#FEFFFE" transform="matrix(1.00, 0.00, -0.00, -1.00, 239.4, 3.0)">s</text><text xml:space="preserve" font-family="AvenirNext-Medium" font-size="50.0" fill="#FEFFFE" transform="matrix(1.00, 0.00, -0.00, -1.00, 261.6, 3.0)"> </text><text xml:space="preserve" font-family="AvenirNext-Medium" font-size="50.0" fill="#FEFFFE" transform="matrix(1.00, 0.00, -0.00, -1.00, 273.2, 3.0)">V</text><text xml:space="preserve" font-family="AvenirNext-Medium" font-size="50.0" fill="#FEFFFE" transform="matrix(1.00, 0.00, -0.00, -1.00, 303.2, 3.0)">e</text><text xml:space="preserve" font-family="AvenirNext-Medium" font-size="50.0" fill="#FEFFFE" transform="matrix(1.00, 0.00, -0.00, -1.00, 331.9, 3.0)">t</text><text xml:space="preserve" font-family="AvenirNext-Medium" font-size="50.0" fill="#FEFFFE" transform="matrix(1.00, 0.00, -0.00, -1.00, 348.3, 3.0)">o</text><text xml:space="preserve" font-family="AvenirNext-Medium" font-size="50.0" fill="#FEFFFE" transform="matrix(1.00, 0.00, -0.00, -1.00, 378.8, 3.0)">r</text><text xml:space="preserve" font-family="AvenirNext-Medium" font-size="50.0" fill="#FEFFFE" transform="matrix(1.00, 0.00, -0.00, -1.00, 396.9, 3.0)">i</text><text xml:space="preserve" font-family="AvenirNext-Medium" font-size="50.0" fill="#FEFFFE" transform="matrix(1.00, 0.00, -0.00, -1.00, 409.9, 3.0)">a</text><text xml:space="preserve" font-family="AvenirNext-Medium" font-size="50.0" fill="#FEFFFE" transform="matrix(1.00, 0.00, -0.00, -1.00, 437.0, 3.0)">i</text><text xml:space="preserve" font-family="AvenirNext-Medium" font-size="50.0" fill="#FEFFFE" transform="matrix(1.00, 0.00, -0.00, -1.00, 449.9, 3.0)">s</text><text xml:space="preserve" font-family="AvenirNext-Medium" font-size="50.0" fill="#FEFFFE" transform="matrix(1.00, 0.00, -0.00, -1.00, 472.1, 3.0)"> </text><text xml:space="preserve" font-family="AvenirNext-Medium" font-size="50.0" fill="#FEFFFE" transform="matrix(1.00, 0.00, -0.00, -1.00, 484.6, 3.0)">E</text><text xml:space="preserve" font-family="AvenirNext-Medium" font-size="50.0" fill="#FEFFFE" transform="matrix(1.00, 0.00, -0.00, -1.00, 514.7, 3.0)">s</text><text xml:space="preserve" font-family="AvenirNext-Medium" font-size="50.0" fill="#FEFFFE" transform="matrix(1.00, 0.00, -0.00, -1.00, 536.9, 3.0)">c</text><text xml:space="preserve" font-family="AvenirNext-Medium" font-size="50.0" fill="#FEFFFE" transform="matrix(1.00, 0.00, -0.00, -1.00, 561.6, 3.0)">a</text><text xml:space="preserve" font-family="AvenirNext-Medium" font-size="50.0" fill="#FEFFFE" transform="matrix(1.00, 0.00, -0.00, -1.00, 588.7, 3.0)">l</text><text xml:space="preserve" font-family="AvenirNext-Medium" font-size="50.0" fill="#FEFFFE" transform="matrix(1.00, 0.00, -0.00, -1.00, 601.7, 3.0)">á</text><text xml:space="preserve" font-family="AvenirNext-Medium" font-size="50.0" fill="#FEFFFE" transform="matrix(1.00, 0.00, -0.00, -1.00, 628.8, 3.0)">v</text><text xml:space="preserve" font-family="AvenirNext-Medium" font-size="50.0" fill="#FEFFFE" transform="matrix(1.00, 0.00, -0.00, -1.00, 654.0, 3.0)">e</text><text xml:space="preserve" font-family="AvenirNext-Medium" font-size="50.0" fill="#FEFFFE" transform="matrix(1.00, 0.00, -0.00, -1.00, 682.7, 3.0)">i</text><text xml:space="preserve" font-family="AvenirNext-Medium" font-size="50.0" fill="#FEFFFE" transform="matrix(1.00, 0.00, -0.00, -1.00, 695.6, 3.0)">s</text></g></svg>