<?xml version="1.0" encoding="UTF-8" standalone="no"?><svg xmlns="http://www.w3.org/2000/svg" xmlns:xlink="http://www.w3.org/1999/xlink" clip-rule="evenodd" stroke-miterlimit="4.00" viewBox="0 0 1372 27"><desc>SVG generated by Keynote</desc><defs></defs><g transform="matrix(1.00, 0.00, -0.00, -1.00, 0.0, 27.0)"><text xml:space="preserve" font-family="Menlo-Bold" font-weight="bold" font-size="28.0" fill="#CFDD00" transform="matrix(1.00, 0.00, -0.00, -1.00, 0.9, 5.0)">4</text><text xml:space="preserve" font-family="Menlo-Bold" font-weight="bold" font-size="28.0" fill="#CFDD00" transform="matrix(1.00, 0.00, -0.00, -1.00, 16.7, 5.0)">5</text><text xml:space="preserve" font-family="Menlo-Bold" font-weight="bold" font-size="28.0" fill="#CFDD00" transform="matrix(1.00, 0.00, -0.00, -1.00, 32.4, 5.0)">9</text><text xml:space="preserve" font-family="Menlo-Bold" font-weight="bold" font-size="28.0" fill="#CFDD00" transform="matrix(1.00, 0.00, -0.00, -1.00, 48.1, 5.0)">.</text><text xml:space="preserve" font-family="Menlo-Bold" font-weight="bold" font-size="28.0" fill="#CFDD00" transform="matrix(1.00, 0.00, -0.00, -1.00, 63.9, 5.0)">7</text><text xml:space="preserve" font-family="Menlo-Bold" font-weight="bold" font-size="28.0" fill="#CFDD00" transform="matrix(1.00, 0.00, -0.00, -1.00, 79.6, 5.0)"> </text><text xml:space="preserve" font-family="Menlo-Bold" font-weight="bold" font-size="28.0" fill="#CFDD00" transform="matrix(1.00, 0.00, -0.00, -1.00, 95.4, 5.0)">1</text><text xml:space="preserve" font-family="Menlo-Bold" font-weight="bold" font-size="28.0" fill="#CFDD00" transform="matrix(1.00, 0.00, -0.00, -1.00, 111.1, 5.0)">5</text><text xml:space="preserve" font-family="Menlo-Bold" font-weight="bold" font-size="28.0" fill="#CFDD00" transform="matrix(1.00, 0.00, -0.00, -1.00, 126.8, 5.0)">0</text><text xml:space="preserve" font-family="Menlo-Bold" font-weight="bold" font-size="28.0" fill="#CFDD00" transform="matrix(1.00, 0.00, -0.00, -1.00, 142.6, 5.0)">.</text><text xml:space="preserve" font-family="Menlo-Bold" font-weight="bold" font-size="28.0" fill="#CFDD00" transform="matrix(1.00, 0.00, -0.00, -1.00, 158.3, 5.0)">3</text><text xml:space="preserve" font-family="Menlo-Bold" font-weight="bold" font-size="28.0" fill="#CFDD00" transform="matrix(1.00, 0.00, -0.00, -1.00, 174.1, 5.0)">V</text><text xml:space="preserve" font-family="Menlo-Bold" font-weight="bold" font-size="28.0" fill="#CFDD00" transform="matrix(1.00, 0.00, -0.00, -1.00, 189.8, 5.0)">1</text><text xml:space="preserve" font-family="Menlo-Bold" font-weight="bold" font-size="28.0" fill="#CFDD00" transform="matrix(1.00, 0.00, -0.00, -1.00, 205.5, 5.0)">0</text><text xml:space="preserve" font-family="Menlo-Bold" font-weight="bold" font-size="28.0" fill="#CFDD00" transform="matrix(1.00, 0.00, -0.00, -1.00, 221.3, 5.0)">6</text><text xml:space="preserve" font-family="Menlo-Bold" font-weight="bold" font-size="28.0" fill="#CFDD00" transform="matrix(1.00, 0.00, -0.00, -1.00, 237.0, 5.0)">s</text><text xml:space="preserve" font-family="Menlo-Bold" font-weight="bold" font-size="28.0" fill="#CFDD00" transform="matrix(1.00, 0.00, -0.00, -1.00, 252.8, 5.0)">-</text><text xml:space="preserve" font-family="Menlo-Bold" font-weight="bold" font-size="28.0" fill="#CFDD00" transform="matrix(1.00, 0.00, -0.00, -1.00, 268.5, 5.0)">.</text><text xml:space="preserve" font-family="Menlo-Bold" font-weight="bold" font-size="28.0" fill="#CFDD00" transform="matrix(1.00, 0.00, -0.00, -1.00, 284.2, 5.0)">3</text><text xml:space="preserve" font-family="Menlo-Bold" font-weight="bold" font-size="28.0" fill="#CFDD00" transform="matrix(1.00, 0.00, -0.00, -1.00, 300.0, 5.0)">-</text><text xml:space="preserve" font-family="Menlo-Bold" font-weight="bold" font-size="28.0" fill="#CFDD00" transform="matrix(1.00, 0.00, -0.00, -1.00, 315.7, 5.0)">2</text><text xml:space="preserve" font-family="Menlo-Bold" font-weight="bold" font-size="28.0" fill="#CFDD00" transform="matrix(1.00, 0.00, -0.00, -1.00, 331.5, 5.0)">6</text><text xml:space="preserve" font-family="Menlo-Bold" font-weight="bold" font-size="28.0" fill="#CFDD00" transform="matrix(1.00, 0.00, -0.00, -1.00, 347.2, 5.0)">.</text><text xml:space="preserve" font-family="Menlo-Bold" font-weight="bold" font-size="28.0" fill="#CFDD00" transform="matrix(1.00, 0.00, -0.00, -1.00, 362.9, 5.0)">7</text><text xml:space="preserve" font-family="Menlo-Bold" font-weight="bold" font-size="28.0" fill="#CFDD00" transform="matrix(1.00, 0.00, -0.00, -1.00, 378.7, 5.0)"> </text><text xml:space="preserve" font-family="Menlo-Bold" font-weight="bold" font-size="28.0" fill="#CFDD00" transform="matrix(1.00, 0.00, -0.00, -1.00, 394.4, 5.0)">2</text><text xml:space="preserve" font-family="Menlo-Bold" font-weight="bold" font-size="28.0" fill="#CFDD00" transform="matrix(1.00, 0.00, -0.00, -1.00, 410.2, 5.0)">6</text><text xml:space="preserve" font-family="Menlo-Bold" font-weight="bold" font-size="28.0" fill="#CFDD00" transform="matrix(1.00, 0.00, -0.00, -1.00, 425.9, 5.0)">.</text><text xml:space="preserve" font-family="Menlo-Bold" font-weight="bold" font-size="28.0" fill="#CFDD00" transform="matrix(1.00, 0.00, -0.00, -1.00, 441.6, 5.0)">7</text><text xml:space="preserve" font-family="Menlo-Bold" font-weight="bold" font-size="28.0" fill="#CFDD00" transform="matrix(1.00, 0.00, -0.00, -1.00, 457.4, 5.0)">-</text><text xml:space="preserve" font-family="Menlo-Bold" font-weight="bold" font-size="28.0" fill="#CFDD00" transform="matrix(1.00, 0.00, -0.00, -1.00, 473.1, 5.0)">2</text><text xml:space="preserve" font-family="Menlo-Bold" font-weight="bold" font-size="28.0" fill="#CFDD00" transform="matrix(1.00, 0.00, -0.00, -1.00, 488.9, 5.0)">6</text><text xml:space="preserve" font-family="Menlo-Bold" font-weight="bold" font-size="28.0" fill="#CFDD00" transform="matrix(1.00, 0.00, -0.00, -1.00, 504.6, 5.0)">.</text><text xml:space="preserve" font-family="Menlo-Bold" font-weight="bold" font-size="28.0" fill="#CFDD00" transform="matrix(1.00, 0.00, -0.00, -1.00, 520.3, 5.0)">7</text><text xml:space="preserve" font-family="Menlo-Bold" font-weight="bold" font-size="28.0" fill="#CFDD00" transform="matrix(1.00, 0.00, -0.00, -1.00, 536.1, 5.0)">c</text><text xml:space="preserve" font-family="Menlo-Bold" font-weight="bold" font-size="28.0" fill="#CFDD00" transform="matrix(1.00, 0.00, -0.00, -1.00, 551.8, 5.0)">2</text><text xml:space="preserve" font-family="Menlo-Bold" font-weight="bold" font-size="28.0" fill="#CFDD00" transform="matrix(1.00, 0.00, -0.00, -1.00, 567.6, 5.0)">4</text><text xml:space="preserve" font-family="Menlo-Bold" font-weight="bold" font-size="28.0" fill="#CFDD00" transform="matrix(1.00, 0.00, -0.00, -1.00, 583.3, 5.0)"> </text><text xml:space="preserve" font-family="Menlo-Bold" font-weight="bold" font-size="28.0" fill="#CFDD00" transform="matrix(1.00, 0.00, -0.00, -1.00, 599.0, 5.0)">0</text><text xml:space="preserve" font-family="Menlo-Bold" font-weight="bold" font-size="28.0" fill="#CFDD00" transform="matrix(1.00, 0.00, -0.00, -1.00, 614.8, 5.0)"> </text><text xml:space="preserve" font-family="Menlo-Bold" font-weight="bold" font-size="28.0" fill="#CFDD00" transform="matrix(1.00, 0.00, -0.00, -1.00, 630.5, 5.0)">2</text><text xml:space="preserve" font-family="Menlo-Bold" font-weight="bold" font-size="28.0" fill="#CFDD00" transform="matrix(1.00, 0.00, -0.00, -1.00, 646.3, 5.0)">4</text><text xml:space="preserve" font-family="Menlo-Bold" font-weight="bold" font-size="28.0" fill="#CFDD00" transform="matrix(1.00, 0.00, -0.00, -1.00, 662.0, 5.0)">.</text><text xml:space="preserve" font-family="Menlo-Bold" font-weight="bold" font-size="28.0" fill="#CFDD00" transform="matrix(1.00, 0.00, -0.00, -1.00, 677.7, 5.0)">2</text><text xml:space="preserve" font-family="Menlo-Bold" font-weight="bold" font-size="28.0" fill="#CFDD00" transform="matrix(1.00, 0.00, -0.00, -1.00, 693.5, 5.0)"> </text><text xml:space="preserve" font-family="Menlo-Bold" font-weight="bold" font-size="28.0" fill="#CFDD00" transform="matrix(1.00, 0.00, -0.00, -1.00, 709.2, 5.0)">2</text><text xml:space="preserve" font-family="Menlo-Bold" font-weight="bold" font-size="28.0" fill="#CFDD00" transform="matrix(1.00, 0.00, -0.00, -1.00, 725.0, 5.0)">6</text><text xml:space="preserve" font-family="Menlo-Bold" font-weight="bold" font-size="28.0" fill="#CFDD00" transform="matrix(1.00, 0.00, -0.00, -1.00, 740.7, 5.0)">.</text><text xml:space="preserve" font-family="Menlo-Bold" font-weight="bold" font-size="28.0" fill="#CFDD00" transform="matrix(1.00, 0.00, -0.00, -1.00, 756.4, 5.0)">7</text><text xml:space="preserve" font-family="Menlo-Bold" font-weight="bold" font-size="28.0" fill="#CFDD00" transform="matrix(1.00, 0.00, -0.00, -1.00, 772.2, 5.0)"> </text><text xml:space="preserve" font-family="Menlo-Bold" font-weight="bold" font-size="28.0" fill="#CFDD00" transform="matrix(1.00, 0.00, -0.00, -1.00, 787.9, 5.0)">2</text><text xml:space="preserve" font-family="Menlo-Bold" font-weight="bold" font-size="28.0" fill="#CFDD00" transform="matrix(1.00, 0.00, -0.00, -1.00, 803.7, 5.0)">4</text><text xml:space="preserve" font-family="Menlo-Bold" font-weight="bold" font-size="28.0" fill="#CFDD00" transform="matrix(1.00, 0.00, -0.00, -1.00, 819.4, 5.0)">.</text><text xml:space="preserve" font-family="Menlo-Bold" font-weight="bold" font-size="28.0" fill="#CFDD00" transform="matrix(1.00, 0.00, -0.00, -1.00, 835.1, 5.0)">2</text><text xml:space="preserve" font-family="Menlo-Bold" font-weight="bold" font-size="28.0" fill="#CFDD00" transform="matrix(1.00, 0.00, -0.00, -1.00, 850.9, 5.0)"> </text><text xml:space="preserve" font-family="Menlo-Bold" font-weight="bold" font-size="28.0" fill="#CFDD00" transform="matrix(1.00, 0.00, -0.00, -1.00, 866.6, 5.0)">2</text><text xml:space="preserve" font-family="Menlo-Bold" font-weight="bold" font-size="28.0" fill="#CFDD00" transform="matrix(1.00, 0.00, -0.00, -1.00, 882.4, 5.0)">6</text><text xml:space="preserve" font-family="Menlo-Bold" font-weight="bold" font-size="28.0" fill="#CFDD00" transform="matrix(1.00, 0.00, -0.00, -1.00, 898.1, 5.0)">.</text><text xml:space="preserve" font-family="Menlo-Bold" font-weight="bold" font-size="28.0" fill="#CFDD00" transform="matrix(1.00, 0.00, -0.00, -1.00, 913.8, 5.0)">7</text><text xml:space="preserve" font-family="Menlo-Bold" font-weight="bold" font-size="28.0" fill="#CFDD00" transform="matrix(1.00, 0.00, -0.00, -1.00, 929.6, 5.0)">s</text><text xml:space="preserve" font-family="Menlo-Bold" font-weight="bold" font-size="28.0" fill="#CFDD00" transform="matrix(1.00, 0.00, -0.00, -1.00, 945.3, 5.0)">-</text><text xml:space="preserve" font-family="Menlo-Bold" font-weight="bold" font-size="28.0" fill="#CFDD00" transform="matrix(1.00, 0.00, -0.00, -1.00, 961.1, 5.0)">.</text><text xml:space="preserve" font-family="Menlo-Bold" font-weight="bold" font-size="28.0" fill="#CFDD00" transform="matrix(1.00, 0.00, -0.00, -1.00, 976.8, 5.0)">7</text><text xml:space="preserve" font-family="Menlo-Bold" font-weight="bold" font-size="28.0" fill="#CFDD00" transform="matrix(1.00, 0.00, -0.00, -1.00, 992.5, 5.0)"> </text><text xml:space="preserve" font-family="Menlo-Bold" font-weight="bold" font-size="28.0" fill="#CFDD00" transform="matrix(1.00, 0.00, -0.00, -1.00, 1008.3, 5.0)">2</text><text xml:space="preserve" font-family="Menlo-Bold" font-weight="bold" font-size="28.0" fill="#CFDD00" transform="matrix(1.00, 0.00, -0.00, -1.00, 1024.0, 5.0)">5</text><text xml:space="preserve" font-family="Menlo-Bold" font-weight="bold" font-size="28.0" fill="#CFDD00" transform="matrix(1.00, 0.00, -0.00, -1.00, 1039.8, 5.0)">.</text><text xml:space="preserve" font-family="Menlo-Bold" font-weight="bold" font-size="28.0" fill="#CFDD00" transform="matrix(1.00, 0.00, -0.00, -1.00, 1055.5, 5.0)">3</text><text xml:space="preserve" font-family="Menlo-Bold" font-weight="bold" font-size="28.0" fill="#CFDD00" transform="matrix(1.00, 0.00, -0.00, -1.00, 1071.2, 5.0)"> </text><text xml:space="preserve" font-family="Menlo-Bold" font-weight="bold" font-size="28.0" fill="#CFDD00" transform="matrix(1.00, 0.00, -0.00, -1.00, 1087.0, 5.0)">2</text><text xml:space="preserve" font-family="Menlo-Bold" font-weight="bold" font-size="28.0" fill="#CFDD00" transform="matrix(1.00, 0.00, -0.00, -1.00, 1102.7, 5.0)">5</text><text xml:space="preserve" font-family="Menlo-Bold" font-weight="bold" font-size="28.0" fill="#CFDD00" transform="matrix(1.00, 0.00, -0.00, -1.00, 1118.5, 5.0)">.</text><text xml:space="preserve" font-family="Menlo-Bold" font-weight="bold" font-size="28.0" fill="#CFDD00" transform="matrix(1.00, 0.00, -0.00, -1.00, 1134.2, 5.0)">9</text><text xml:space="preserve" font-family="Menlo-Bold" font-weight="bold" font-size="28.0" fill="#CFDD00" transform="matrix(1.00, 0.00, -0.00, -1.00, 1149.9, 5.0)"> </text><text xml:space="preserve" font-family="Menlo-Bold" font-weight="bold" font-size="28.0" fill="#CFDD00" transform="matrix(1.00, 0.00, -0.00, -1.00, 1165.7, 5.0)">.</text><text xml:space="preserve" font-family="Menlo-Bold" font-weight="bold" font-size="28.0" fill="#CFDD00" transform="matrix(1.00, 0.00, -0.00, -1.00, 1181.4, 5.0)">.</text><text xml:space="preserve" font-family="Menlo-Bold" font-weight="bold" font-size="28.0" fill="#CFDD00" transform="matrix(1.00, 0.00, -0.00, -1.00, 1197.2, 5.0)">.</text><text xml:space="preserve" font-family="Menlo-Bold" font-weight="bold" font-size="28.0" fill="#CFDD00" transform="matrix(1.00, 0.00, -0.00, -1.00, 1212.9, 5.0)"> </text><text xml:space="preserve" font-family="Menlo-Bold" font-weight="bold" font-size="28.0" fill="#CFDD00" transform="matrix(1.00, 0.00, -0.00, -1.00, 1228.6, 5.0)">3</text><text xml:space="preserve" font-family="Menlo-Bold" font-weight="bold" font-size="28.0" fill="#CFDD00" transform="matrix(1.00, 0.00, -0.00, -1.00, 1244.4, 5.0)">V</text><text xml:space="preserve" font-family="Menlo-Bold" font-weight="bold" font-size="28.0" fill="#CFDD00" transform="matrix(1.00, 0.00, -0.00, -1.00, 1260.1, 5.0)">5</text><text xml:space="preserve" font-family="Menlo-Bold" font-weight="bold" font-size="28.0" fill="#CFDD00" transform="matrix(1.00, 0.00, -0.00, -1.00, 1275.9, 5.0)">9</text><text xml:space="preserve" font-family="Menlo-Bold" font-weight="bold" font-size="28.0" fill="#CFDD00" transform="matrix(1.00, 0.00, -0.00, -1.00, 1291.6, 5.0)">.</text><text xml:space="preserve" font-family="Menlo-Bold" font-weight="bold" font-size="28.0" fill="#CFDD00" transform="matrix(1.00, 0.00, -0.00, -1.00, 1307.3, 5.0)">9</text><text xml:space="preserve" font-family="Menlo-Bold" font-weight="bold" font-size="28.0" fill="#CFDD00" transform="matrix(1.00, 0.00, -0.00, -1.00, 1323.1, 5.0)">"</text><text xml:space="preserve" font-family="Menlo-Regular" font-size="28.0" fill="#838686" transform="matrix(1.00, 0.00, -0.00, -1.00, 1338.6, 5.0)">/</text><text xml:space="preserve" font-family="Menlo-Regular" font-size="28.0" fill="#838686" transform="matrix(1.00, 0.00, -0.00, -1.00, 1354.3, 5.0)">&gt;</text></g></svg>