<?xml version="1.0" encoding="UTF-8" standalone="no"?><svg xmlns="http://www.w3.org/2000/svg" xmlns:xlink="http://www.w3.org/1999/xlink" clip-rule="evenodd" stroke-miterlimit="4.00" viewBox="0 0 396 70"><desc>SVG generated by Keynote</desc><defs></defs><g transform="matrix(1.00, 0.00, -0.00, -1.00, 0.0, 70.0)"><text xml:space="preserve" font-family="AvenirNextCondensed-Bold" font-weight="bold" font-size="88.0" fill="#34A4DA" transform="matrix(1.00, 0.00, -0.00, -1.00, 1.8, 4.0)"> </text><text xml:space="preserve" font-family="AvenirNextCondensed-Bold" font-weight="bold" font-size="88.0" fill="#34A4DA" transform="matrix(1.00, 0.00, -0.00, -1.00, 19.4, 4.0)">D</text><text xml:space="preserve" font-family="AvenirNextCondensed-Bold" font-weight="bold" font-size="88.0" fill="#34A4DA" transform="matrix(1.00, 0.00, -0.00, -1.00, 71.4, 4.0)">E</text><text xml:space="preserve" font-family="AvenirNextCondensed-Bold" font-weight="bold" font-size="88.0" fill="#34A4DA" transform="matrix(1.00, 0.00, -0.00, -1.00, 110.8, 4.0)">S</text><text xml:space="preserve" font-family="AvenirNextCondensed-Bold" font-weight="bold" font-size="88.0" fill="#34A4DA" transform="matrix(1.00, 0.00, -0.00, -1.00, 151.3, 4.0)">E</text><text xml:space="preserve" font-family="AvenirNextCondensed-Bold" font-weight="bold" font-size="88.0" fill="#34A4DA" transform="matrix(1.00, 0.00, -0.00, -1.00, 190.8, 4.0)">N</text><text xml:space="preserve" font-family="AvenirNextCondensed-Bold" font-weight="bold" font-size="88.0" fill="#34A4DA" transform="matrix(1.00, 0.00, -0.00, -1.00, 243.8, 4.0)">H</text><text xml:space="preserve" font-family="AvenirNextCondensed-Bold" font-weight="bold" font-size="88.0" fill="#34A4DA" transform="matrix(1.00, 0.00, -0.00, -1.00, 297.4, 4.0)">A</text><text xml:space="preserve" font-family="AvenirNextCondensed-Bold" font-weight="bold" font-size="88.0" fill="#34A4DA" transform="matrix(1.00, 0.00, -0.00, -1.00, 345.2, 4.0)">R</text><text xml:space="preserve" font-family="AvenirNextCondensed-Bold" font-weight="bold" font-size="88.0" fill="#34A4DA" transform="matrix(1.00, 0.00, -0.00, -1.00, 392.8, 4.0)"> </text></g></svg>