<?xml version="1.0" encoding="UTF-8" standalone="no"?><svg xmlns="http://www.w3.org/2000/svg" xmlns:xlink="http://www.w3.org/1999/xlink" clip-rule="evenodd" stroke-miterlimit="4.00" viewBox="0 0 145 26"><desc>SVG generated by Keynote</desc><defs></defs><g transform="matrix(1.00, 0.00, -0.00, -1.00, 0.0, 26.0)"><text xml:space="preserve" font-family="Menlo-Regular" font-size="28.0" fill="#838686" transform="matrix(1.00, 0.00, -0.00, -1.00, 2.1, 3.0)"> </text><text xml:space="preserve" font-family="Menlo-Regular" font-size="28.0" fill="#838686" transform="matrix(1.00, 0.00, -0.00, -1.00, 17.9, 3.0)">c</text><text xml:space="preserve" font-family="Menlo-Regular" font-size="28.0" fill="#838686" transform="matrix(1.00, 0.00, -0.00, -1.00, 33.6, 3.0)">l</text><text xml:space="preserve" font-family="Menlo-Regular" font-size="28.0" fill="#838686" transform="matrix(1.00, 0.00, -0.00, -1.00, 49.3, 3.0)">a</text><text xml:space="preserve" font-family="Menlo-Regular" font-size="28.0" fill="#838686" transform="matrix(1.00, 0.00, -0.00, -1.00, 65.1, 3.0)">s</text><text xml:space="preserve" font-family="Menlo-Regular" font-size="28.0" fill="#838686" transform="matrix(1.00, 0.00, -0.00, -1.00, 80.8, 3.0)">s</text><text xml:space="preserve" font-family="Menlo-Regular" font-size="28.0" fill="#838686" transform="matrix(1.00, 0.00, -0.00, -1.00, 96.6, 3.0)">=</text><text xml:space="preserve" font-family="Menlo-Regular" font-size="28.0" fill="#838686" transform="matrix(1.00, 0.00, -0.00, -1.00, 112.3, 3.0)">"</text><text xml:space="preserve" font-family="Menlo-Regular" font-size="28.0" fill="#838686" transform="matrix(1.00, 0.00, -0.00, -1.00, 128.0, 3.0)">c</text></g></svg>