<?xml version="1.0" encoding="UTF-8" standalone="no"?><svg xmlns="http://www.w3.org/2000/svg" xmlns:xlink="http://www.w3.org/1999/xlink" clip-rule="evenodd" stroke-miterlimit="4.00" viewBox="0 0 158 32"><desc>SVG generated by Keynote</desc><defs></defs><g transform="matrix(1.00, 0.00, -0.00, -1.00, 0.0, 32.0)"><text xml:space="preserve" font-family="Menlo-Regular" font-size="28.0" fill="#838686" transform="matrix(1.00, 0.00, -0.00, -1.00, -1.4, 9.0)">s</text><text xml:space="preserve" font-family="Menlo-Regular" font-size="28.0" fill="#838686" transform="matrix(1.00, 0.00, -0.00, -1.00, 14.4, 9.0)">=</text><text xml:space="preserve" font-family="Menlo-Regular" font-size="28.0" fill="#838686" transform="matrix(1.00, 0.00, -0.00, -1.00, 30.1, 9.0)">"</text><text xml:space="preserve" font-family="Menlo-Regular" font-size="28.0" fill="#838686" transform="matrix(1.00, 0.00, -0.00, -1.00, 45.9, 9.0)">s</text><text xml:space="preserve" font-family="Menlo-Regular" font-size="28.0" fill="#838686" transform="matrix(1.00, 0.00, -0.00, -1.00, 61.6, 9.0)">v</text><text xml:space="preserve" font-family="Menlo-Regular" font-size="28.0" fill="#838686" transform="matrix(1.00, 0.00, -0.00, -1.00, 77.3, 9.0)">g</text><text xml:space="preserve" font-family="Menlo-Regular" font-size="28.0" fill="#838686" transform="matrix(1.00, 0.00, -0.00, -1.00, 93.1, 9.0)">"</text><text xml:space="preserve" font-family="Menlo-Regular" font-size="28.0" fill="#838686" transform="matrix(1.00, 0.00, -0.00, -1.00, 108.8, 9.0)"> </text><text xml:space="preserve" font-family="Menlo-Regular" font-size="28.0" fill="#838686" transform="matrix(1.00, 0.00, -0.00, -1.00, 124.6, 9.0)">x</text><text xml:space="preserve" font-family="Menlo-Regular" font-size="28.0" fill="#838686" transform="matrix(1.00, 0.00, -0.00, -1.00, 140.3, 9.0)">m</text></g></svg>