<?xml version="1.0" encoding="UTF-8" standalone="no"?><svg xmlns="http://www.w3.org/2000/svg" xmlns:xlink="http://www.w3.org/1999/xlink" clip-rule="evenodd" stroke-miterlimit="4.00" viewBox="0 0 601 70"><desc>SVG generated by Keynote</desc><defs></defs><g transform="matrix(1.00, 0.00, -0.00, -1.00, 0.0, 70.0)"><text xml:space="preserve" font-family="AvenirNextCondensed-Bold" font-weight="bold" font-size="88.0" fill="#34A4DA" transform="matrix(1.00, 0.00, -0.00, -1.00, -1.0, 4.0)">C</text><text xml:space="preserve" font-family="AvenirNextCondensed-Bold" font-weight="bold" font-size="88.0" fill="#34A4DA" transform="matrix(1.00, 0.00, -0.00, -1.00, 44.1, 4.0)">S</text><text xml:space="preserve" font-family="AvenirNextCondensed-Bold" font-weight="bold" font-size="88.0" fill="#34A4DA" transform="matrix(1.00, 0.00, -0.00, -1.00, 84.6, 4.0)">S</text><text xml:space="preserve" font-family="AvenirNextCondensed-Bold" font-weight="bold" font-size="88.0" fill="#34A4DA" transform="matrix(1.00, 0.00, -0.00, -1.00, 125.2, 4.0)"> </text><text xml:space="preserve" font-family="AvenirNextCondensed-Bold" font-weight="bold" font-size="88.0" fill="#34A4DA" transform="matrix(1.00, 0.00, -0.00, -1.00, 140.7, 4.0)">T</text><text xml:space="preserve" font-family="AvenirNextCondensed-Bold" font-weight="bold" font-size="88.0" fill="#34A4DA" transform="matrix(1.00, 0.00, -0.00, -1.00, 177.2, 4.0)">R</text><text xml:space="preserve" font-family="AvenirNextCondensed-Bold" font-weight="bold" font-size="88.0" fill="#34A4DA" transform="matrix(1.00, 0.00, -0.00, -1.00, 224.8, 4.0)">A</text><text xml:space="preserve" font-family="AvenirNextCondensed-Bold" font-weight="bold" font-size="88.0" fill="#34A4DA" transform="matrix(1.00, 0.00, -0.00, -1.00, 272.6, 4.0)">N</text><text xml:space="preserve" font-family="AvenirNextCondensed-Bold" font-weight="bold" font-size="88.0" fill="#34A4DA" transform="matrix(1.00, 0.00, -0.00, -1.00, 325.7, 4.0)">S</text><text xml:space="preserve" font-family="AvenirNextCondensed-Bold" font-weight="bold" font-size="88.0" fill="#34A4DA" transform="matrix(1.00, 0.00, -0.00, -1.00, 366.2, 4.0)">I</text><text xml:space="preserve" font-family="AvenirNextCondensed-Bold" font-weight="bold" font-size="88.0" fill="#34A4DA" transform="matrix(1.00, 0.00, -0.00, -1.00, 391.5, 4.0)">T</text><text xml:space="preserve" font-family="AvenirNextCondensed-Bold" font-weight="bold" font-size="88.0" fill="#34A4DA" transform="matrix(1.00, 0.00, -0.00, -1.00, 428.0, 4.0)">I</text><text xml:space="preserve" font-family="AvenirNextCondensed-Bold" font-weight="bold" font-size="88.0" fill="#34A4DA" transform="matrix(1.00, 0.00, -0.00, -1.00, 453.3, 4.0)">O</text><text xml:space="preserve" font-family="AvenirNextCondensed-Bold" font-weight="bold" font-size="88.0" fill="#34A4DA" transform="matrix(1.00, 0.00, -0.00, -1.00, 507.1, 4.0)">N</text><text xml:space="preserve" font-family="AvenirNextCondensed-Bold" font-weight="bold" font-size="88.0" fill="#34A4DA" transform="matrix(1.00, 0.00, -0.00, -1.00, 560.2, 4.0)">S</text></g></svg>