<?xml version="1.0" encoding="UTF-8" standalone="no"?><svg xmlns="http://www.w3.org/2000/svg" xmlns:xlink="http://www.w3.org/1999/xlink" clip-rule="evenodd" stroke-miterlimit="4.00" viewBox="0 0 551 73"><desc>SVG generated by Keynote</desc><defs></defs><g transform="matrix(1.00, 0.00, -0.00, -1.00, 0.0, 73.0)"><g><clipPath id="clip-5"><path d="M 0.0 1.3 L 551.0 1.3 L 551.0 73.0 L 0.0 73.0 Z M 0.0 1.3 "></path></clipPath><g clip-path="url(#clip-5)"><text xml:space="preserve" font-family="DINAlternate-Bold" font-weight="bold" font-size="74.0" fill="#FFFFFF" transform="matrix(1.00, 0.00, -0.00, -1.00, -1.0, 18.0)">@</text><text xml:space="preserve" font-family="DINAlternate-Bold" font-weight="bold" font-size="74.0" fill="#FFFFFF" transform="matrix(1.00, 0.00, -0.00, -1.00, 58.2, 18.0)">k</text><text xml:space="preserve" font-family="DINAlternate-Bold" font-weight="bold" font-size="74.0" fill="#FFFFFF" transform="matrix(1.00, 0.00, -0.00, -1.00, 96.6, 18.0)">r</text><text xml:space="preserve" font-family="DINAlternate-Bold" font-weight="bold" font-size="74.0" fill="#FFFFFF" transform="matrix(1.00, 0.00, -0.00, -1.00, 125.4, 18.0)">y</text><text xml:space="preserve" font-family="DINAlternate-Bold" font-weight="bold" font-size="74.0" fill="#FFFFFF" transform="matrix(1.00, 0.00, -0.00, -1.00, 158.2, 18.0)">s</text><text xml:space="preserve" font-family="DINAlternate-Bold" font-weight="bold" font-size="74.0" fill="#FFFFFF" transform="matrix(1.00, 0.00, -0.00, -1.00, 193.7, 18.0)">t</text><text xml:space="preserve" font-family="DINAlternate-Bold" font-weight="bold" font-size="74.0" fill="#FFFFFF" transform="matrix(1.00, 0.00, -0.00, -1.00, 214.3, 18.0)">a</text><text xml:space="preserve" font-family="DINAlternate-Bold" font-weight="bold" font-size="74.0" fill="#FFFFFF" transform="matrix(1.00, 0.00, -0.00, -1.00, 251.3, 18.0)">l</text><text xml:space="preserve" font-family="DINAlternate-Bold" font-weight="bold" font-size="74.0" fill="#FFFFFF" transform="matrix(1.00, 0.00, -0.00, -1.00, 270.3, 18.0)">c</text><text xml:space="preserve" font-family="DINAlternate-Bold" font-weight="bold" font-size="74.0" fill="#FFFFFF" transform="matrix(1.00, 0.00, -0.00, -1.00, 303.2, 18.0)">a</text><text xml:space="preserve" font-family="DINAlternate-Bold" font-weight="bold" font-size="74.0" fill="#FFFFFF" transform="matrix(1.00, 0.00, -0.00, -1.00, 340.2, 18.0)">m</text><text xml:space="preserve" font-family="DINAlternate-Bold" font-weight="bold" font-size="74.0" fill="#FFFFFF" transform="matrix(1.00, 0.00, -0.00, -1.00, 403.2, 18.0)">p</text><text xml:space="preserve" font-family="DINAlternate-Bold" font-weight="bold" font-size="74.0" fill="#FFFFFF" transform="matrix(1.00, 0.00, -0.00, -1.00, 441.6, 18.0)">i</text><text xml:space="preserve" font-family="DINAlternate-Bold" font-weight="bold" font-size="74.0" fill="#FFFFFF" transform="matrix(1.00, 0.00, -0.00, -1.00, 459.4, 18.0)">o</text><text xml:space="preserve" font-family="DINAlternate-Bold" font-weight="bold" font-size="74.0" fill="#FFFFFF" transform="matrix(1.00, 0.00, -0.00, -1.00, 496.4, 18.0)">n</text><text xml:space="preserve" font-family="DINAlternate-Bold" font-weight="bold" font-size="74.0" fill="#FFFFFF" transform="matrix(1.00, 0.00, -0.00, -1.00, 536.1, 18.0)">i</text></g></g></g></svg>