<?xml version="1.0" encoding="UTF-8" standalone="no"?><svg xmlns="http://www.w3.org/2000/svg" xmlns:xlink="http://www.w3.org/1999/xlink" clip-rule="evenodd" stroke-miterlimit="4.00" viewBox="0 0 529 168"><desc>SVG generated by Keynote</desc><defs></defs><g transform="matrix(1.00, 0.00, -0.00, -1.00, 0.0, 168.0)"><g><clipPath id="clip-7"><path d="M 0.2 2.7 L 165.2 2.7 L 165.2 167.7 L 0.2 167.7 Z M 0.2 2.7 "></path></clipPath><g clip-path="url(#clip-7)"><image xlink:href="../../530E9AF0-43D7-4833-AF5F-F344C0C97C42/assets/F9C715065DC1A3859361FADC862C15DD.jpeg" width="165.00" height="165.00" transform="matrix(1.00, 0.00, -0.00, -1.00, 0.0, 168.0)"></image></g></g><g><clipPath id="clip-8"><path d="M 182.1 2.7 L 347.1 2.7 L 347.1 167.7 L 182.1 167.7 Z M 182.1 2.7 "></path></clipPath><g clip-path="url(#clip-8)"><image xlink:href="../../530E9AF0-43D7-4833-AF5F-F344C0C97C42/assets/921F712C823F9B1F8FA67147D2C70470.jpeg" width="165.00" height="165.00" transform="matrix(1.00, 0.00, -0.00, -1.00, 182.0, 168.0)"></image></g></g><g><clipPath id="clip-9"><path d="M 364.0 1.0 L 529.0 1.0 L 529.0 166.0 L 364.0 166.0 Z M 364.0 1.0 "></path></clipPath><g clip-path="url(#clip-9)"><image xlink:href="../../530E9AF0-43D7-4833-AF5F-F344C0C97C42/assets/98064BAD7EF26B720E7FD06B7E6EE384.jpeg" width="165.00" height="165.00" transform="matrix(1.00, 0.00, -0.00, -1.00, 364.0, 166.0)"></image></g></g></g></svg>