<?xml version="1.0" encoding="UTF-8" standalone="no"?><svg xmlns="http://www.w3.org/2000/svg" xmlns:xlink="http://www.w3.org/1999/xlink" clip-rule="evenodd" stroke-miterlimit="4.00" viewBox="0 0 613 75"><desc>SVG generated by Keynote</desc><defs></defs><g transform="matrix(1.00, 0.00, -0.00, -1.00, 0.0, 75.0)"><text xml:space="preserve" font-family="LucidaGrande" font-size="63.0" fill="#34A4DA" transform="matrix(1.00, 0.00, -0.00, -1.00, 0.2, 14.1)">▸</text><text xml:space="preserve" font-family="AvenirNext-Medium" font-size="60.0" fill="#FEFFFE" transform="matrix(1.00, 0.00, -0.00, -1.00, 48.0, 19.0)">h</text><text xml:space="preserve" font-family="AvenirNext-Medium" font-size="60.0" fill="#FEFFFE" transform="matrix(1.00, 0.00, -0.00, -1.00, 83.0, 19.0)">t</text><text xml:space="preserve" font-family="AvenirNext-Medium" font-size="60.0" fill="#FEFFFE" transform="matrix(1.00, 0.00, -0.00, -1.00, 101.9, 19.0)">t</text><text xml:space="preserve" font-family="AvenirNext-Medium" font-size="60.0" fill="#FEFFFE" transform="matrix(1.00, 0.00, -0.00, -1.00, 121.6, 19.0)">p</text><text xml:space="preserve" font-family="AvenirNext-Medium" font-size="60.0" fill="#FEFFFE" transform="matrix(1.00, 0.00, -0.00, -1.00, 159.7, 19.0)">:</text><text xml:space="preserve" font-family="AvenirNext-Medium" font-size="60.0" fill="#FEFFFE" transform="matrix(1.00, 0.00, -0.00, -1.00, 177.7, 19.0)">/</text><text xml:space="preserve" font-family="AvenirNext-Medium" font-size="60.0" fill="#FEFFFE" transform="matrix(1.00, 0.00, -0.00, -1.00, 200.5, 19.0)">/</text><text xml:space="preserve" font-family="AvenirNext-Medium" font-size="60.0" fill="#FEFFFE" transform="matrix(1.00, 0.00, -0.00, -1.00, 223.3, 19.0)">b</text><text xml:space="preserve" font-family="AvenirNext-Medium" font-size="60.0" fill="#FEFFFE" transform="matrix(1.00, 0.00, -0.00, -1.00, 261.4, 19.0)">i</text><text xml:space="preserve" font-family="AvenirNext-Medium" font-size="60.0" fill="#FEFFFE" transform="matrix(1.00, 0.00, -0.00, -1.00, 277.0, 19.0)">t</text><text xml:space="preserve" font-family="AvenirNext-Medium" font-size="60.0" fill="#FEFFFE" transform="matrix(1.00, 0.00, -0.00, -1.00, 296.7, 19.0)">.</text><text xml:space="preserve" font-family="AvenirNext-Medium" font-size="60.0" fill="#FEFFFE" transform="matrix(1.00, 0.00, -0.00, -1.00, 312.3, 19.0)">l</text><text xml:space="preserve" font-family="AvenirNext-Medium" font-size="60.0" fill="#FEFFFE" transform="matrix(1.00, 0.00, -0.00, -1.00, 327.9, 19.0)">y</text><text xml:space="preserve" font-family="AvenirNext-Medium" font-size="60.0" fill="#FEFFFE" transform="matrix(1.00, 0.00, -0.00, -1.00, 358.1, 19.0)">/</text><text xml:space="preserve" font-family="AvenirNext-Bold" font-weight="bold" font-size="60.0" fill="#FEFFFE" transform="matrix(1.00, 0.00, -0.00, -1.00, 380.9, 19.0)">s</text><text xml:space="preserve" font-family="AvenirNext-Bold" font-weight="bold" font-size="60.0" fill="#FEFFFE" transform="matrix(1.00, 0.00, -0.00, -1.00, 409.3, 19.0)">v</text><text xml:space="preserve" font-family="AvenirNext-Bold" font-weight="bold" font-size="60.0" fill="#FEFFFE" transform="matrix(1.00, 0.00, -0.00, -1.00, 443.3, 19.0)">g</text><text xml:space="preserve" font-family="AvenirNext-Bold" font-weight="bold" font-size="60.0" fill="#FEFFFE" transform="matrix(1.00, 0.00, -0.00, -1.00, 482.8, 19.0)">p</text><text xml:space="preserve" font-family="AvenirNext-Bold" font-weight="bold" font-size="60.0" fill="#FEFFFE" transform="matrix(1.00, 0.00, -0.00, -1.00, 522.2, 19.0)">a</text><text xml:space="preserve" font-family="AvenirNext-Bold" font-weight="bold" font-size="60.0" fill="#FEFFFE" transform="matrix(1.00, 0.00, -0.00, -1.00, 555.5, 19.0)">t</text><text xml:space="preserve" font-family="AvenirNext-Bold" font-weight="bold" font-size="60.0" fill="#FEFFFE" transform="matrix(1.00, 0.00, -0.00, -1.00, 577.9, 19.0)">h</text></g></svg>