<?xml version="1.0" encoding="UTF-8" standalone="no"?><svg xmlns="http://www.w3.org/2000/svg" xmlns:xlink="http://www.w3.org/1999/xlink" clip-rule="evenodd" stroke-miterlimit="4.00" viewBox="0 0 751 66"><desc>SVG generated by Keynote</desc><defs></defs><g transform="matrix(1.00, 0.00, -0.00, -1.00, 0.0, 66.0)"><text xml:space="preserve" font-family="AvenirNextCondensed-Bold" font-weight="bold" font-size="88.0" fill="#34A4DA" transform="matrix(1.00, 0.00, -0.00, -1.00, -4.0, 2.0)">P</text><text xml:space="preserve" font-family="AvenirNextCondensed-Bold" font-weight="bold" font-size="88.0" fill="#34A4DA" transform="matrix(1.00, 0.00, -0.00, -1.00, 38.2, 2.0)">A</text><text xml:space="preserve" font-family="AvenirNextCondensed-Bold" font-weight="bold" font-size="88.0" fill="#34A4DA" transform="matrix(1.00, 0.00, -0.00, -1.00, 86.0, 2.0)">R</text><text xml:space="preserve" font-family="AvenirNextCondensed-Bold" font-weight="bold" font-size="88.0" fill="#34A4DA" transform="matrix(1.00, 0.00, -0.00, -1.00, 133.6, 2.0)">A</text><text xml:space="preserve" font-family="AvenirNextCondensed-Bold" font-weight="bold" font-size="88.0" fill="#34A4DA" transform="matrix(1.00, 0.00, -0.00, -1.00, 179.8, 2.0)"> </text><text xml:space="preserve" font-family="AvenirNextCondensed-Bold" font-weight="bold" font-size="88.0" fill="#34A4DA" transform="matrix(1.00, 0.00, -0.00, -1.00, 197.4, 2.0)">E</text><text xml:space="preserve" font-family="AvenirNextCondensed-Bold" font-weight="bold" font-size="88.0" fill="#34A4DA" transform="matrix(1.00, 0.00, -0.00, -1.00, 236.9, 2.0)">N</text><text xml:space="preserve" font-family="AvenirNextCondensed-Bold" font-weight="bold" font-size="88.0" fill="#34A4DA" transform="matrix(1.00, 0.00, -0.00, -1.00, 289.9, 2.0)">T</text><text xml:space="preserve" font-family="AvenirNextCondensed-Bold" font-weight="bold" font-size="88.0" fill="#34A4DA" transform="matrix(1.00, 0.00, -0.00, -1.00, 326.4, 2.0)">E</text><text xml:space="preserve" font-family="AvenirNextCondensed-Bold" font-weight="bold" font-size="88.0" fill="#34A4DA" transform="matrix(1.00, 0.00, -0.00, -1.00, 365.9, 2.0)">N</text><text xml:space="preserve" font-family="AvenirNextCondensed-Bold" font-weight="bold" font-size="88.0" fill="#34A4DA" transform="matrix(1.00, 0.00, -0.00, -1.00, 418.9, 2.0)">D</text><text xml:space="preserve" font-family="AvenirNextCondensed-Bold" font-weight="bold" font-size="88.0" fill="#34A4DA" transform="matrix(1.00, 0.00, -0.00, -1.00, 470.8, 2.0)">E</text><text xml:space="preserve" font-family="AvenirNextCondensed-Bold" font-weight="bold" font-size="88.0" fill="#34A4DA" transform="matrix(1.00, 0.00, -0.00, -1.00, 510.3, 2.0)">R</text><text xml:space="preserve" font-family="AvenirNextCondensed-Bold" font-weight="bold" font-size="88.0" fill="#34A4DA" transform="matrix(1.00, 0.00, -0.00, -1.00, 557.9, 2.0)"> </text><text xml:space="preserve" font-family="AvenirNextCondensed-Bold" font-weight="bold" font-size="88.0" fill="#34A4DA" transform="matrix(1.00, 0.00, -0.00, -1.00, 575.5, 2.0)">P</text><text xml:space="preserve" font-family="AvenirNextCondensed-Bold" font-weight="bold" font-size="88.0" fill="#34A4DA" transform="matrix(1.00, 0.00, -0.00, -1.00, 617.7, 2.0)">A</text><text xml:space="preserve" font-family="AvenirNextCondensed-Bold" font-weight="bold" font-size="88.0" fill="#34A4DA" transform="matrix(1.00, 0.00, -0.00, -1.00, 663.9, 2.0)">T</text><text xml:space="preserve" font-family="AvenirNextCondensed-Bold" font-weight="bold" font-size="88.0" fill="#34A4DA" transform="matrix(1.00, 0.00, -0.00, -1.00, 700.4, 2.0)">H</text></g></svg>