<?xml version="1.0" encoding="UTF-8" standalone="no"?><svg xmlns="http://www.w3.org/2000/svg" xmlns:xlink="http://www.w3.org/1999/xlink" clip-rule="evenodd" stroke-miterlimit="4.00" viewBox="0 0 278 64"><desc>SVG generated by Keynote</desc><defs></defs><g transform="matrix(1.00, 0.00, -0.00, -1.00, 0.0, 64.0)"><g><clipPath id="clip-46"><path d="M 0.0 0.0 L 278.0 0.0 L 278.0 64.0 L 0.0 64.0 Z M 0.0 0.0 "></path></clipPath><g clip-path="url(#clip-46)"><text xml:space="preserve" font-family="AvenirNext-Medium" font-size="60.0" fill="#FEFFFE" transform="matrix(1.00, 0.00, -0.00, -1.00, -2.9, 17.0)">k</text><text xml:space="preserve" font-family="AvenirNext-Medium" font-size="60.0" fill="#FEFFFE" transform="matrix(1.00, 0.00, -0.00, -1.00, 27.7, 17.0)">e</text><text xml:space="preserve" font-family="AvenirNext-Medium" font-size="60.0" fill="#FEFFFE" transform="matrix(1.00, 0.00, -0.00, -1.00, 62.1, 17.0)">t</text><text xml:space="preserve" font-family="AvenirNext-Medium" font-size="60.0" fill="#FEFFFE" transform="matrix(1.00, 0.00, -0.00, -1.00, 81.8, 17.0)">c</text><text xml:space="preserve" font-family="AvenirNext-Medium" font-size="60.0" fill="#FEFFFE" transform="matrix(1.00, 0.00, -0.00, -1.00, 111.4, 17.0)">h</text><text xml:space="preserve" font-family="AvenirNext-Medium" font-size="60.0" fill="#FEFFFE" transform="matrix(1.00, 0.00, -0.00, -1.00, 146.5, 17.0)"> </text><text xml:space="preserve" font-family="AvenirNext-Medium" font-size="60.0" fill="#FEFFFE" transform="matrix(1.00, 0.00, -0.00, -1.00, 160.4, 17.0)">A</text><text xml:space="preserve" font-family="AvenirNext-Medium" font-size="60.0" fill="#FEFFFE" transform="matrix(1.00, 0.00, -0.00, -1.00, 203.1, 17.0)">p</text><text xml:space="preserve" font-family="AvenirNext-Medium" font-size="60.0" fill="#FEFFFE" transform="matrix(1.00, 0.00, -0.00, -1.00, 241.1, 17.0)">p</text></g></g></g></svg>