<?xml version="1.0" encoding="UTF-8" standalone="no"?><svg xmlns="http://www.w3.org/2000/svg" xmlns:xlink="http://www.w3.org/1999/xlink" clip-rule="evenodd" stroke-miterlimit="4.00" viewBox="0 0 242 50"><desc>SVG generated by Keynote</desc><defs></defs><g transform="matrix(1.00, 0.00, -0.00, -1.00, 0.0, 50.0)"><text xml:space="preserve" font-family="AvenirNext-Medium" font-size="60.0" fill="#FEFFFE" transform="matrix(1.00, 0.00, -0.00, -1.00, -2.8, 3.0)">l</text><text xml:space="preserve" font-family="AvenirNext-Medium" font-size="60.0" fill="#FEFFFE" transform="matrix(1.00, 0.00, -0.00, -1.00, 12.8, 3.0)">l</text><text xml:space="preserve" font-family="AvenirNext-Medium" font-size="60.0" fill="#FEFFFE" transform="matrix(1.00, 0.00, -0.00, -1.00, 28.4, 3.0)">u</text><text xml:space="preserve" font-family="AvenirNext-Medium" font-size="60.0" fill="#FEFFFE" transform="matrix(1.00, 0.00, -0.00, -1.00, 63.3, 3.0)">s</text><text xml:space="preserve" font-family="AvenirNext-Medium" font-size="60.0" fill="#FEFFFE" transform="matrix(1.00, 0.00, -0.00, -1.00, 89.9, 3.0)">t</text><text xml:space="preserve" font-family="AvenirNext-Medium" font-size="60.0" fill="#FEFFFE" transform="matrix(1.00, 0.00, -0.00, -1.00, 109.7, 3.0)">r</text><text xml:space="preserve" font-family="AvenirNext-Medium" font-size="60.0" fill="#FEFFFE" transform="matrix(1.00, 0.00, -0.00, -1.00, 130.6, 3.0)">a</text><text xml:space="preserve" font-family="AvenirNext-Medium" font-size="60.0" fill="#FEFFFE" transform="matrix(1.00, 0.00, -0.00, -1.00, 162.5, 3.0)">t</text><text xml:space="preserve" font-family="AvenirNext-Medium" font-size="60.0" fill="#FEFFFE" transform="matrix(1.00, 0.00, -0.00, -1.00, 182.3, 3.0)">o</text><text xml:space="preserve" font-family="AvenirNext-Medium" font-size="60.0" fill="#FEFFFE" transform="matrix(1.00, 0.00, -0.00, -1.00, 218.9, 3.0)">r</text></g></svg>