<?xml version="1.0" encoding="UTF-8" standalone="no"?><svg xmlns="http://www.w3.org/2000/svg" xmlns:xlink="http://www.w3.org/1999/xlink" clip-rule="evenodd" stroke-miterlimit="4.00" viewBox="0 0 1029 27"><desc>SVG generated by Keynote</desc><defs></defs><g transform="matrix(1.00, 0.00, -0.00, -1.00, 0.0, 27.0)"><g><clipPath id="clip-50"><path d="M 0.0 0.0 L 1029.0 0.0 L 1029.0 27.0 L 0.0 27.0 Z M 0.0 0.0 "></path></clipPath><g clip-path="url(#clip-50)"><text xml:space="preserve" font-family="DINAlternate-Bold" font-weight="bold" font-size="32.0" fill="#838686" transform="matrix(1.00, 0.00, -0.00, -1.00, 0.0, 2.0)">C</text><text xml:space="preserve" font-family="DINAlternate-Bold" font-weight="bold" font-size="32.0" fill="#838686" transform="matrix(1.00, 0.00, -0.00, -1.00, 19.4, 2.0)">R</text><text xml:space="preserve" font-family="DINAlternate-Bold" font-weight="bold" font-size="32.0" fill="#838686" transform="matrix(1.00, 0.00, -0.00, -1.00, 40.5, 2.0)">I</text><text xml:space="preserve" font-family="DINAlternate-Bold" font-weight="bold" font-size="32.0" fill="#838686" transform="matrix(1.00, 0.00, -0.00, -1.00, 50.4, 2.0)">A</text><text xml:space="preserve" font-family="DINAlternate-Bold" font-weight="bold" font-size="32.0" fill="#838686" transform="matrix(1.00, 0.00, -0.00, -1.00, 71.5, 2.0)">N</text><text xml:space="preserve" font-family="DINAlternate-Bold" font-weight="bold" font-size="32.0" fill="#838686" transform="matrix(1.00, 0.00, -0.00, -1.00, 95.0, 2.0)">D</text><text xml:space="preserve" font-family="DINAlternate-Bold" font-weight="bold" font-size="32.0" fill="#838686" transform="matrix(1.00, 0.00, -0.00, -1.00, 116.8, 2.0)">O</text><text xml:space="preserve" font-family="DINAlternate-Bold" font-weight="bold" font-size="32.0" fill="#838686" transform="matrix(1.00, 0.00, -0.00, -1.00, 137.9, 2.0)"> </text><text xml:space="preserve" font-family="DINAlternate-Bold" font-weight="bold" font-size="32.0" fill="#838686" transform="matrix(1.00, 0.00, -0.00, -1.00, 147.1, 2.0)">I</text><text xml:space="preserve" font-family="DINAlternate-Bold" font-weight="bold" font-size="32.0" fill="#838686" transform="matrix(1.00, 0.00, -0.00, -1.00, 157.0, 2.0)">N</text><text xml:space="preserve" font-family="DINAlternate-Bold" font-weight="bold" font-size="32.0" fill="#838686" transform="matrix(1.00, 0.00, -0.00, -1.00, 180.5, 2.0)">T</text><text xml:space="preserve" font-family="DINAlternate-Bold" font-weight="bold" font-size="32.0" fill="#838686" transform="matrix(1.00, 0.00, -0.00, -1.00, 198.1, 2.0)">E</text><text xml:space="preserve" font-family="DINAlternate-Bold" font-weight="bold" font-size="32.0" fill="#838686" transform="matrix(1.00, 0.00, -0.00, -1.00, 217.5, 2.0)">R</text><text xml:space="preserve" font-family="DINAlternate-Bold" font-weight="bold" font-size="32.0" fill="#838686" transform="matrix(1.00, 0.00, -0.00, -1.00, 238.6, 2.0)">F</text><text xml:space="preserve" font-family="DINAlternate-Bold" font-weight="bold" font-size="32.0" fill="#838686" transform="matrix(1.00, 0.00, -0.00, -1.00, 255.7, 2.0)">A</text><text xml:space="preserve" font-family="DINAlternate-Bold" font-weight="bold" font-size="32.0" fill="#838686" transform="matrix(1.00, 0.00, -0.00, -1.00, 276.2, 2.0)">C</text><text xml:space="preserve" font-family="DINAlternate-Bold" font-weight="bold" font-size="32.0" fill="#838686" transform="matrix(1.00, 0.00, -0.00, -1.00, 295.6, 2.0)">E</text><text xml:space="preserve" font-family="DINAlternate-Bold" font-weight="bold" font-size="32.0" fill="#838686" transform="matrix(1.00, 0.00, -0.00, -1.00, 315.0, 2.0)">S</text><text xml:space="preserve" font-family="DINAlternate-Bold" font-weight="bold" font-size="32.0" fill="#838686" transform="matrix(1.00, 0.00, -0.00, -1.00, 334.9, 2.0)"> </text><text xml:space="preserve" font-family="DINAlternate-Bold" font-weight="bold" font-size="32.0" fill="#838686" transform="matrix(1.00, 0.00, -0.00, -1.00, 344.2, 2.0)">I</text><text xml:space="preserve" font-family="DINAlternate-Bold" font-weight="bold" font-size="32.0" fill="#838686" transform="matrix(1.00, 0.00, -0.00, -1.00, 354.0, 2.0)">N</text><text xml:space="preserve" font-family="DINAlternate-Bold" font-weight="bold" font-size="32.0" fill="#838686" transform="matrix(1.00, 0.00, -0.00, -1.00, 377.5, 2.0)">T</text><text xml:space="preserve" font-family="DINAlternate-Bold" font-weight="bold" font-size="32.0" fill="#838686" transform="matrix(1.00, 0.00, -0.00, -1.00, 395.1, 2.0)">E</text><text xml:space="preserve" font-family="DINAlternate-Bold" font-weight="bold" font-size="32.0" fill="#838686" transform="matrix(1.00, 0.00, -0.00, -1.00, 414.5, 2.0)">R</text><text xml:space="preserve" font-family="DINAlternate-Bold" font-weight="bold" font-size="32.0" fill="#838686" transform="matrix(1.00, 0.00, -0.00, -1.00, 435.7, 2.0)">A</text><text xml:space="preserve" font-family="DINAlternate-Bold" font-weight="bold" font-size="32.0" fill="#838686" transform="matrix(1.00, 0.00, -0.00, -1.00, 454.4, 2.0)">T</text><text xml:space="preserve" font-family="DINAlternate-Bold" font-weight="bold" font-size="32.0" fill="#838686" transform="matrix(1.00, 0.00, -0.00, -1.00, 472.0, 2.0)">I</text><text xml:space="preserve" font-family="DINAlternate-Bold" font-weight="bold" font-size="32.0" fill="#838686" transform="matrix(1.00, 0.00, -0.00, -1.00, 481.9, 2.0)">V</text><text xml:space="preserve" font-family="DINAlternate-Bold" font-weight="bold" font-size="32.0" fill="#838686" transform="matrix(1.00, 0.00, -0.00, -1.00, 499.5, 2.0)">A</text><text xml:space="preserve" font-family="DINAlternate-Bold" font-weight="bold" font-size="32.0" fill="#838686" transform="matrix(1.00, 0.00, -0.00, -1.00, 520.6, 2.0)">S</text><text xml:space="preserve" font-family="DINAlternate-Bold" font-weight="bold" font-size="32.0" fill="#838686" transform="matrix(1.00, 0.00, -0.00, -1.00, 540.6, 2.0)"> </text><text xml:space="preserve" font-family="DINAlternate-Bold" font-weight="bold" font-size="32.0" fill="#838686" transform="matrix(1.00, 0.00, -0.00, -1.00, 549.8, 2.0)">C</text><text xml:space="preserve" font-family="DINAlternate-Bold" font-weight="bold" font-size="32.0" fill="#838686" transform="matrix(1.00, 0.00, -0.00, -1.00, 569.2, 2.0)">O</text><text xml:space="preserve" font-family="DINAlternate-Bold" font-weight="bold" font-size="32.0" fill="#838686" transform="matrix(1.00, 0.00, -0.00, -1.00, 590.3, 2.0)">M</text><text xml:space="preserve" font-family="DINAlternate-Bold" font-weight="bold" font-size="32.0" fill="#838686" transform="matrix(1.00, 0.00, -0.00, -1.00, 616.2, 2.0)"> </text><text xml:space="preserve" font-family="DINAlternate-Bold" font-weight="bold" font-size="32.0" fill="#838686" transform="matrix(1.00, 0.00, -0.00, -1.00, 625.4, 2.0)">S</text><text xml:space="preserve" font-family="DINAlternate-Bold" font-weight="bold" font-size="32.0" fill="#838686" transform="matrix(1.00, 0.00, -0.00, -1.00, 645.4, 2.0)">V</text><text xml:space="preserve" font-family="DINAlternate-Bold" font-weight="bold" font-size="32.0" fill="#838686" transform="matrix(1.00, 0.00, -0.00, -1.00, 664.2, 2.0)">G</text><text xml:space="preserve" font-family="DINAlternate-Bold" font-weight="bold" font-size="32.0" fill="#838686" transform="matrix(1.00, 0.00, -0.00, -1.00, 685.3, 2.0)"> </text><text xml:space="preserve" font-family="DINAlternate-Bold" font-weight="bold" font-size="32.0" fill="#838686" transform="matrix(1.00, 0.00, -0.00, -1.00, 694.6, 2.0)">+</text><text xml:space="preserve" font-family="DINAlternate-Bold" font-weight="bold" font-size="32.0" fill="#838686" transform="matrix(1.00, 0.00, -0.00, -1.00, 715.4, 2.0)"> </text><text xml:space="preserve" font-family="DINAlternate-Bold" font-weight="bold" font-size="32.0" fill="#838686" transform="matrix(1.00, 0.00, -0.00, -1.00, 724.6, 2.0)">S</text><text xml:space="preserve" font-family="DINAlternate-Bold" font-weight="bold" font-size="32.0" fill="#838686" transform="matrix(1.00, 0.00, -0.00, -1.00, 744.5, 2.0)">A</text><text xml:space="preserve" font-family="DINAlternate-Bold" font-weight="bold" font-size="32.0" fill="#838686" transform="matrix(1.00, 0.00, -0.00, -1.00, 765.7, 2.0)">S</text><text xml:space="preserve" font-family="DINAlternate-Bold" font-weight="bold" font-size="32.0" fill="#838686" transform="matrix(1.00, 0.00, -0.00, -1.00, 785.6, 2.0)">S</text><text xml:space="preserve" font-family="DINAlternate-Bold" font-weight="bold" font-size="32.0" fill="#838686" transform="matrix(1.00, 0.00, -0.00, -1.00, 805.5, 2.0)"> </text><text xml:space="preserve" font-family="DINAlternate-Bold" font-weight="bold" font-size="32.0" fill="#838686" transform="matrix(1.00, 0.00, -0.00, -1.00, 814.8, 2.0)">+</text><text xml:space="preserve" font-family="DINAlternate-Bold" font-weight="bold" font-size="32.0" fill="#838686" transform="matrix(1.00, 0.00, -0.00, -1.00, 835.6, 2.0)"> </text><text xml:space="preserve" font-family="DINAlternate-Bold" font-weight="bold" font-size="32.0" fill="#838686" transform="matrix(1.00, 0.00, -0.00, -1.00, 844.8, 2.0)">J</text><text xml:space="preserve" font-family="DINAlternate-Bold" font-weight="bold" font-size="32.0" fill="#838686" transform="matrix(1.00, 0.00, -0.00, -1.00, 861.8, 2.0)">A</text><text xml:space="preserve" font-family="DINAlternate-Bold" font-weight="bold" font-size="32.0" fill="#838686" transform="matrix(1.00, 0.00, -0.00, -1.00, 881.2, 2.0)">V</text><text xml:space="preserve" font-family="DINAlternate-Bold" font-weight="bold" font-size="32.0" fill="#838686" transform="matrix(1.00, 0.00, -0.00, -1.00, 898.8, 2.0)">A</text><text xml:space="preserve" font-family="DINAlternate-Bold" font-weight="bold" font-size="32.0" fill="#838686" transform="matrix(1.00, 0.00, -0.00, -1.00, 919.9, 2.0)">S</text><text xml:space="preserve" font-family="DINAlternate-Bold" font-weight="bold" font-size="32.0" fill="#838686" transform="matrix(1.00, 0.00, -0.00, -1.00, 939.9, 2.0)">C</text><text xml:space="preserve" font-family="DINAlternate-Bold" font-weight="bold" font-size="32.0" fill="#838686" transform="matrix(1.00, 0.00, -0.00, -1.00, 959.3, 2.0)">R</text><text xml:space="preserve" font-family="DINAlternate-Bold" font-weight="bold" font-size="32.0" fill="#838686" transform="matrix(1.00, 0.00, -0.00, -1.00, 980.4, 2.0)">I</text><text xml:space="preserve" font-family="DINAlternate-Bold" font-weight="bold" font-size="32.0" fill="#838686" transform="matrix(1.00, 0.00, -0.00, -1.00, 990.2, 2.0)">P</text><text xml:space="preserve" font-family="DINAlternate-Bold" font-weight="bold" font-size="32.0" fill="#838686" transform="matrix(1.00, 0.00, -0.00, -1.00, 1010.8, 2.0)">T</text></g></g></g></svg>