<?xml version="1.0" encoding="UTF-8" standalone="no"?><svg xmlns="http://www.w3.org/2000/svg" xmlns:xlink="http://www.w3.org/1999/xlink" clip-rule="evenodd" stroke-miterlimit="4.00" viewBox="0 0 843 70"><desc>SVG generated by Keynote</desc><defs></defs><g transform="matrix(1.00, 0.00, -0.00, -1.00, 0.0, 70.0)"><text xml:space="preserve" font-family="AvenirNextCondensed-Bold" font-weight="bold" font-size="88.0" fill="#34A4DA" transform="matrix(1.00, 0.00, -0.00, -1.00, 2.0, 4.0)">A</text><text xml:space="preserve" font-family="AvenirNextCondensed-Bold" font-weight="bold" font-size="88.0" fill="#34A4DA" transform="matrix(1.00, 0.00, -0.00, -1.00, 48.2, 4.0)"> </text><text xml:space="preserve" font-family="AvenirNextCondensed-Bold" font-weight="bold" font-size="88.0" fill="#34A4DA" transform="matrix(1.00, 0.00, -0.00, -1.00, 63.7, 4.0)">T</text><text xml:space="preserve" font-family="AvenirNextCondensed-Bold" font-weight="bold" font-size="88.0" fill="#34A4DA" transform="matrix(1.00, 0.00, -0.00, -1.00, 98.6, 4.0)">A</text><text xml:space="preserve" font-family="AvenirNextCondensed-Bold" font-weight="bold" font-size="88.0" fill="#34A4DA" transform="matrix(1.00, 0.00, -0.00, -1.00, 145.9, 4.0)">G</text><text xml:space="preserve" font-family="AvenirNextCondensed-Bold" font-weight="bold" font-size="88.0" fill="#34A4DA" transform="matrix(1.00, 0.00, -0.00, -1.00, 195.2, 4.0)"> </text><text xml:space="preserve" font-family="AvenirNextCondensed-Bold" font-weight="bold" font-size="88.0" fill="#34A4DA" transform="matrix(1.00, 0.00, -0.00, -1.00, 212.8, 4.0)">S</text><text xml:space="preserve" font-family="AvenirNextCondensed-Bold" font-weight="bold" font-size="88.0" fill="#34A4DA" transform="matrix(1.00, 0.00, -0.00, -1.00, 252.3, 4.0)">V</text><text xml:space="preserve" font-family="AvenirNextCondensed-Bold" font-weight="bold" font-size="88.0" fill="#34A4DA" transform="matrix(1.00, 0.00, -0.00, -1.00, 299.8, 4.0)">G</text><text xml:space="preserve" font-family="AvenirNextCondensed-Bold" font-weight="bold" font-size="88.0" fill="#34A4DA" transform="matrix(1.00, 0.00, -0.00, -1.00, 349.1, 4.0)"> </text><text xml:space="preserve" font-family="AvenirNextCondensed-Bold" font-weight="bold" font-size="88.0" fill="#34A4DA" transform="matrix(1.00, 0.00, -0.00, -1.00, 366.7, 4.0)">E</text><text xml:space="preserve" font-family="AvenirNextCondensed-Bold" font-weight="bold" font-size="88.0" fill="#34A4DA" transform="matrix(1.00, 0.00, -0.00, -1.00, 406.1, 4.0)"> </text><text xml:space="preserve" font-family="AvenirNextCondensed-Bold" font-weight="bold" font-size="88.0" fill="#34A4DA" transform="matrix(1.00, 0.00, -0.00, -1.00, 423.7, 4.0)">O</text><text xml:space="preserve" font-family="AvenirNextCondensed-Bold" font-weight="bold" font-size="88.0" fill="#34A4DA" transform="matrix(1.00, 0.00, -0.00, -1.00, 477.6, 4.0)"> </text><text xml:space="preserve" font-family="AvenirNextCondensed-Bold" font-weight="bold" font-size="88.0" fill="#34A4DA" transform="matrix(1.00, 0.00, -0.00, -1.00, 495.2, 4.0)"> </text><text xml:space="preserve" font-family="AvenirNextCondensed-Bold" font-weight="bold" font-size="88.0" fill="#34A4DA" transform="matrix(1.00, 0.00, -0.00, -1.00, 511.2, 4.0)">V</text><text xml:space="preserve" font-family="AvenirNextCondensed-Bold" font-weight="bold" font-size="88.0" fill="#34A4DA" transform="matrix(1.00, 0.00, -0.00, -1.00, 559.2, 4.0)">I</text><text xml:space="preserve" font-family="AvenirNextCondensed-Bold" font-weight="bold" font-size="88.0" fill="#34A4DA" transform="matrix(1.00, 0.00, -0.00, -1.00, 584.5, 4.0)">E</text><text xml:space="preserve" font-family="AvenirNextCondensed-Bold" font-weight="bold" font-size="88.0" fill="#34A4DA" transform="matrix(1.00, 0.00, -0.00, -1.00, 623.9, 4.0)">W</text><text xml:space="preserve" font-family="AvenirNextCondensed-Bold" font-weight="bold" font-size="88.0" fill="#34A4DA" transform="matrix(1.00, 0.00, -0.00, -1.00, 694.2, 4.0)">B</text><text xml:space="preserve" font-family="AvenirNextCondensed-Bold" font-weight="bold" font-size="88.0" fill="#34A4DA" transform="matrix(1.00, 0.00, -0.00, -1.00, 742.1, 4.0)">O</text><text xml:space="preserve" font-family="AvenirNextCondensed-Bold" font-weight="bold" font-size="88.0" fill="#34A4DA" transform="matrix(1.00, 0.00, -0.00, -1.00, 793.8, 4.0)">X</text></g></svg>