<?xml version="1.0" encoding="UTF-8" standalone="no"?><svg xmlns="http://www.w3.org/2000/svg" xmlns:xlink="http://www.w3.org/1999/xlink" clip-rule="evenodd" stroke-miterlimit="4.00" viewBox="0 0 1310 188"><desc>SVG generated by Keynote</desc><defs></defs><g transform="matrix(1.00, 0.00, -0.00, -1.00, 0.0, 188.0)"><text xml:space="preserve" font-family="AvenirNextCondensed-DemiBold" font-weight="bold" font-size="100.0" fill="#FEFFFE" transform="matrix(1.00, 0.00, -0.00, -1.00, -2.0, 114.0)">C</text><text xml:space="preserve" font-family="AvenirNextCondensed-DemiBold" font-weight="bold" font-size="100.0" fill="#FEFFFE" transform="matrix(1.00, 0.00, -0.00, -1.00, 47.6, 114.0)">R</text><text xml:space="preserve" font-family="AvenirNextCondensed-DemiBold" font-weight="bold" font-size="100.0" fill="#FEFFFE" transform="matrix(1.00, 0.00, -0.00, -1.00, 98.9, 114.0)">I</text><text xml:space="preserve" font-family="AvenirNextCondensed-DemiBold" font-weight="bold" font-size="100.0" fill="#FEFFFE" transform="matrix(1.00, 0.00, -0.00, -1.00, 125.2, 114.0)">A</text><text xml:space="preserve" font-family="AvenirNextCondensed-DemiBold" font-weight="bold" font-size="100.0" fill="#FEFFFE" transform="matrix(1.00, 0.00, -0.00, -1.00, 175.8, 114.0)">N</text><text xml:space="preserve" font-family="AvenirNextCondensed-DemiBold" font-weight="bold" font-size="100.0" fill="#FEFFFE" transform="matrix(1.00, 0.00, -0.00, -1.00, 234.4, 114.0)">D</text><text xml:space="preserve" font-family="AvenirNextCondensed-DemiBold" font-weight="bold" font-size="100.0" fill="#FEFFFE" transform="matrix(1.00, 0.00, -0.00, -1.00, 291.3, 114.0)">O</text><text xml:space="preserve" font-family="AvenirNextCondensed-DemiBold" font-weight="bold" font-size="100.0" fill="#FEFFFE" transform="matrix(1.00, 0.00, -0.00, -1.00, 350.4, 114.0)"> </text><text xml:space="preserve" font-family="AvenirNextCondensed-DemiBold" font-weight="bold" font-size="100.0" fill="#FEFFFE" transform="matrix(1.00, 0.00, -0.00, -1.00, 369.9, 114.0)">I</text><text xml:space="preserve" font-family="AvenirNextCondensed-DemiBold" font-weight="bold" font-size="100.0" fill="#FEFFFE" transform="matrix(1.00, 0.00, -0.00, -1.00, 396.2, 114.0)">N</text><text xml:space="preserve" font-family="AvenirNextCondensed-DemiBold" font-weight="bold" font-size="100.0" fill="#FEFFFE" transform="matrix(1.00, 0.00, -0.00, -1.00, 454.8, 114.0)">T</text><text xml:space="preserve" font-family="AvenirNextCondensed-DemiBold" font-weight="bold" font-size="100.0" fill="#FEFFFE" transform="matrix(1.00, 0.00, -0.00, -1.00, 492.8, 114.0)">E</text><text xml:space="preserve" font-family="AvenirNextCondensed-DemiBold" font-weight="bold" font-size="100.0" fill="#FEFFFE" transform="matrix(1.00, 0.00, -0.00, -1.00, 536.4, 114.0)">R</text><text xml:space="preserve" font-family="AvenirNextCondensed-DemiBold" font-weight="bold" font-size="100.0" fill="#FEFFFE" transform="matrix(1.00, 0.00, -0.00, -1.00, 587.7, 114.0)">F</text><text xml:space="preserve" font-family="AvenirNextCondensed-DemiBold" font-weight="bold" font-size="100.0" fill="#FEFFFE" transform="matrix(1.00, 0.00, -0.00, -1.00, 625.7, 114.0)">A</text><text xml:space="preserve" font-family="AvenirNextCondensed-DemiBold" font-weight="bold" font-size="100.0" fill="#FEFFFE" transform="matrix(1.00, 0.00, -0.00, -1.00, 675.7, 114.0)">C</text><text xml:space="preserve" font-family="AvenirNextCondensed-DemiBold" font-weight="bold" font-size="100.0" fill="#FEFFFE" transform="matrix(1.00, 0.00, -0.00, -1.00, 725.3, 114.0)">E</text><text xml:space="preserve" font-family="AvenirNextCondensed-DemiBold" font-weight="bold" font-size="100.0" fill="#FEFFFE" transform="matrix(1.00, 0.00, -0.00, -1.00, 768.9, 114.0)">S</text><text xml:space="preserve" font-family="AvenirNextCondensed-DemiBold" font-weight="bold" font-size="100.0" fill="#FEFFFE" transform="matrix(1.00, 0.00, -0.00, -1.00, 813.8, 114.0)"> </text><text xml:space="preserve" font-family="AvenirNextCondensed-DemiBold" font-weight="bold" font-size="100.0" fill="#FEFFFE" transform="matrix(1.00, 0.00, -0.00, -1.00, 833.3, 114.0)">I</text><text xml:space="preserve" font-family="AvenirNextCondensed-DemiBold" font-weight="bold" font-size="100.0" fill="#FEFFFE" transform="matrix(1.00, 0.00, -0.00, -1.00, 859.7, 114.0)">N</text><text xml:space="preserve" font-family="AvenirNextCondensed-DemiBold" font-weight="bold" font-size="100.0" fill="#FEFFFE" transform="matrix(1.00, 0.00, -0.00, -1.00, 918.2, 114.0)">T</text><text xml:space="preserve" font-family="AvenirNextCondensed-DemiBold" font-weight="bold" font-size="100.0" fill="#FEFFFE" transform="matrix(1.00, 0.00, -0.00, -1.00, 956.2, 114.0)">E</text><text xml:space="preserve" font-family="AvenirNextCondensed-DemiBold" font-weight="bold" font-size="100.0" fill="#FEFFFE" transform="matrix(1.00, 0.00, -0.00, -1.00, 999.8, 114.0)">R</text><text xml:space="preserve" font-family="AvenirNextCondensed-DemiBold" font-weight="bold" font-size="100.0" fill="#FEFFFE" transform="matrix(1.00, 0.00, -0.00, -1.00, 1051.1, 114.0)">A</text><text xml:space="preserve" font-family="AvenirNextCondensed-DemiBold" font-weight="bold" font-size="100.0" fill="#FEFFFE" transform="matrix(1.00, 0.00, -0.00, -1.00, 1099.9, 114.0)">T</text><text xml:space="preserve" font-family="AvenirNextCondensed-DemiBold" font-weight="bold" font-size="100.0" fill="#FEFFFE" transform="matrix(1.00, 0.00, -0.00, -1.00, 1137.8, 114.0)">I</text><text xml:space="preserve" font-family="AvenirNextCondensed-DemiBold" font-weight="bold" font-size="100.0" fill="#FEFFFE" transform="matrix(1.00, 0.00, -0.00, -1.00, 1164.2, 114.0)">V</text><text xml:space="preserve" font-family="AvenirNextCondensed-DemiBold" font-weight="bold" font-size="100.0" fill="#FEFFFE" transform="matrix(1.00, 0.00, -0.00, -1.00, 1213.7, 114.0)">A</text><text xml:space="preserve" font-family="AvenirNextCondensed-DemiBold" font-weight="bold" font-size="100.0" fill="#FEFFFE" transform="matrix(1.00, 0.00, -0.00, -1.00, 1264.3, 114.0)">S</text><text xml:space="preserve" font-family="AvenirNextCondensed-DemiBold" font-weight="bold" font-size="100.0" fill="#FEFFFE" transform="matrix(1.00, 0.00, -0.00, -1.00, 1309.2, 114.0)"> </text><text xml:space="preserve" font-family="AvenirNextCondensed-DemiBold" font-weight="bold" font-size="100.0" fill="#FEFFFE" transform="matrix(1.00, 0.00, -0.00, -1.00, -2.0, 4.0)">C</text><text xml:space="preserve" font-family="AvenirNextCondensed-DemiBold" font-weight="bold" font-size="100.0" fill="#FEFFFE" transform="matrix(1.00, 0.00, -0.00, -1.00, 46.4, 4.0)">O</text><text xml:space="preserve" font-family="AvenirNextCondensed-DemiBold" font-weight="bold" font-size="100.0" fill="#FEFFFE" transform="matrix(1.00, 0.00, -0.00, -1.00, 105.5, 4.0)">M</text><text xml:space="preserve" font-family="AvenirNextCondensed-DemiBold" font-weight="bold" font-size="100.0" fill="#FEFFFE" transform="matrix(1.00, 0.00, -0.00, -1.00, 180.0, 4.0)"> </text><text xml:space="preserve" font-family="AvenirNextCondensed-DemiBold" font-weight="bold" font-size="100.0" fill="#FEFFFE" transform="matrix(1.00, 0.00, -0.00, -1.00, 199.5, 4.0)">S</text><text xml:space="preserve" font-family="AvenirNextCondensed-DemiBold" font-weight="bold" font-size="100.0" fill="#FEFFFE" transform="matrix(1.00, 0.00, -0.00, -1.00, 243.2, 4.0)">V</text><text xml:space="preserve" font-family="AvenirNextCondensed-DemiBold" font-weight="bold" font-size="100.0" fill="#FEFFFE" transform="matrix(1.00, 0.00, -0.00, -1.00, 293.3, 4.0)">G</text><text xml:space="preserve" font-family="AvenirNextCondensed-DemiBold" font-weight="bold" font-size="100.0" fill="#FEFFFE" transform="matrix(1.00, 0.00, -0.00, -1.00, 348.2, 4.0)"> </text><text xml:space="preserve" font-family="AvenirNextCondensed-DemiBold" font-weight="bold" font-size="100.0" fill="#FEFFFE" transform="matrix(1.00, 0.00, -0.00, -1.00, 367.7, 4.0)">+</text><text xml:space="preserve" font-family="AvenirNextCondensed-DemiBold" font-weight="bold" font-size="100.0" fill="#FEFFFE" transform="matrix(1.00, 0.00, -0.00, -1.00, 434.2, 4.0)"> </text><text xml:space="preserve" font-family="AvenirNextCondensed-DemiBold" font-weight="bold" font-size="100.0" fill="#FEFFFE" transform="matrix(1.00, 0.00, -0.00, -1.00, 453.7, 4.0)">S</text><text xml:space="preserve" font-family="AvenirNextCondensed-DemiBold" font-weight="bold" font-size="100.0" fill="#FEFFFE" transform="matrix(1.00, 0.00, -0.00, -1.00, 498.6, 4.0)">A</text><text xml:space="preserve" font-family="AvenirNextCondensed-DemiBold" font-weight="bold" font-size="100.0" fill="#FEFFFE" transform="matrix(1.00, 0.00, -0.00, -1.00, 549.2, 4.0)">S</text><text xml:space="preserve" font-family="AvenirNextCondensed-DemiBold" font-weight="bold" font-size="100.0" fill="#FEFFFE" transform="matrix(1.00, 0.00, -0.00, -1.00, 594.1, 4.0)">S</text><text xml:space="preserve" font-family="AvenirNextCondensed-DemiBold" font-weight="bold" font-size="100.0" fill="#FEFFFE" transform="matrix(1.00, 0.00, -0.00, -1.00, 638.9, 4.0)"> </text><text xml:space="preserve" font-family="AvenirNextCondensed-DemiBold" font-weight="bold" font-size="100.0" fill="#FEFFFE" transform="matrix(1.00, 0.00, -0.00, -1.00, 658.4, 4.0)">+</text><text xml:space="preserve" font-family="AvenirNextCondensed-DemiBold" font-weight="bold" font-size="100.0" fill="#FEFFFE" transform="matrix(1.00, 0.00, -0.00, -1.00, 725.0, 4.0)"> </text><text xml:space="preserve" font-family="AvenirNextCondensed-DemiBold" font-weight="bold" font-size="100.0" fill="#FEFFFE" transform="matrix(1.00, 0.00, -0.00, -1.00, 743.3, 4.0)">J</text><text xml:space="preserve" font-family="AvenirNextCondensed-DemiBold" font-weight="bold" font-size="100.0" fill="#FEFFFE" transform="matrix(1.00, 0.00, -0.00, -1.00, 783.7, 4.0)">A</text><text xml:space="preserve" font-family="AvenirNextCondensed-DemiBold" font-weight="bold" font-size="100.0" fill="#FEFFFE" transform="matrix(1.00, 0.00, -0.00, -1.00, 833.1, 4.0)">V</text><text xml:space="preserve" font-family="AvenirNextCondensed-DemiBold" font-weight="bold" font-size="100.0" fill="#FEFFFE" transform="matrix(1.00, 0.00, -0.00, -1.00, 882.5, 4.0)">A</text><text xml:space="preserve" font-family="AvenirNextCondensed-DemiBold" font-weight="bold" font-size="100.0" fill="#FEFFFE" transform="matrix(1.00, 0.00, -0.00, -1.00, 933.1, 4.0)">S</text><text xml:space="preserve" font-family="AvenirNextCondensed-DemiBold" font-weight="bold" font-size="100.0" fill="#FEFFFE" transform="matrix(1.00, 0.00, -0.00, -1.00, 978.0, 4.0)">C</text><text xml:space="preserve" font-family="AvenirNextCondensed-DemiBold" font-weight="bold" font-size="100.0" fill="#FEFFFE" transform="matrix(1.00, 0.00, -0.00, -1.00, 1027.6, 4.0)">R</text><text xml:space="preserve" font-family="AvenirNextCondensed-DemiBold" font-weight="bold" font-size="100.0" fill="#FEFFFE" transform="matrix(1.00, 0.00, -0.00, -1.00, 1078.9, 4.0)">I</text><text xml:space="preserve" font-family="AvenirNextCondensed-DemiBold" font-weight="bold" font-size="100.0" fill="#FEFFFE" transform="matrix(1.00, 0.00, -0.00, -1.00, 1105.3, 4.0)">P</text><text xml:space="preserve" font-family="AvenirNextCondensed-DemiBold" font-weight="bold" font-size="100.0" fill="#FEFFFE" transform="matrix(1.00, 0.00, -0.00, -1.00, 1154.1, 4.0)">T</text></g></svg>