<?xml version="1.0" encoding="UTF-8" standalone="no"?><svg xmlns="http://www.w3.org/2000/svg" xmlns:xlink="http://www.w3.org/1999/xlink" clip-rule="evenodd" stroke-miterlimit="4.00" viewBox="0 0 522 73"><desc>SVG generated by Keynote</desc><defs></defs><g transform="matrix(1.00, 0.00, -0.00, -1.00, 0.0, 73.0)"><g><clipPath id="clip-126"><path d="M 0.0 0.7 L 522.0 0.7 L 522.0 73.0 L 0.0 73.0 Z M 0.0 0.7 "></path></clipPath><g clip-path="url(#clip-126)"><text xml:space="preserve" font-family="DINAlternate-Bold" font-weight="bold" font-size="74.0" fill="#FFFFFF" transform="matrix(1.00, 0.00, -0.00, -1.00, -4.0, 17.0)">K</text><text xml:space="preserve" font-family="DINAlternate-Bold" font-weight="bold" font-size="74.0" fill="#FFFFFF" transform="matrix(1.00, 0.00, -0.00, -1.00, 42.6, 17.0)">r</text><text xml:space="preserve" font-family="DINAlternate-Bold" font-weight="bold" font-size="74.0" fill="#FFFFFF" transform="matrix(1.00, 0.00, -0.00, -1.00, 71.4, 17.0)">y</text><text xml:space="preserve" font-family="DINAlternate-Bold" font-weight="bold" font-size="74.0" fill="#FFFFFF" transform="matrix(1.00, 0.00, -0.00, -1.00, 104.2, 17.0)">s</text><text xml:space="preserve" font-family="DINAlternate-Bold" font-weight="bold" font-size="74.0" fill="#FFFFFF" transform="matrix(1.00, 0.00, -0.00, -1.00, 139.8, 17.0)">t</text><text xml:space="preserve" font-family="DINAlternate-Bold" font-weight="bold" font-size="74.0" fill="#FFFFFF" transform="matrix(1.00, 0.00, -0.00, -1.00, 160.3, 17.0)">a</text><text xml:space="preserve" font-family="DINAlternate-Bold" font-weight="bold" font-size="74.0" fill="#FFFFFF" transform="matrix(1.00, 0.00, -0.00, -1.00, 197.3, 17.0)">l</text><text xml:space="preserve" font-family="DINAlternate-Bold" font-weight="bold" font-size="74.0" fill="#FFFFFF" transform="matrix(1.00, 0.00, -0.00, -1.00, 216.4, 17.0)"> </text><text xml:space="preserve" font-family="DINAlternate-Bold" font-weight="bold" font-size="74.0" fill="#FFFFFF" transform="matrix(1.00, 0.00, -0.00, -1.00, 234.1, 17.0)">C</text><text xml:space="preserve" font-family="DINAlternate-Bold" font-weight="bold" font-size="74.0" fill="#FFFFFF" transform="matrix(1.00, 0.00, -0.00, -1.00, 275.3, 17.0)">a</text><text xml:space="preserve" font-family="DINAlternate-Bold" font-weight="bold" font-size="74.0" fill="#FFFFFF" transform="matrix(1.00, 0.00, -0.00, -1.00, 312.3, 17.0)">m</text><text xml:space="preserve" font-family="DINAlternate-Bold" font-weight="bold" font-size="74.0" fill="#FFFFFF" transform="matrix(1.00, 0.00, -0.00, -1.00, 375.3, 17.0)">p</text><text xml:space="preserve" font-family="DINAlternate-Bold" font-weight="bold" font-size="74.0" fill="#FFFFFF" transform="matrix(1.00, 0.00, -0.00, -1.00, 413.7, 17.0)">i</text><text xml:space="preserve" font-family="DINAlternate-Bold" font-weight="bold" font-size="74.0" fill="#FFFFFF" transform="matrix(1.00, 0.00, -0.00, -1.00, 431.4, 17.0)">o</text><text xml:space="preserve" font-family="DINAlternate-Bold" font-weight="bold" font-size="74.0" fill="#FFFFFF" transform="matrix(1.00, 0.00, -0.00, -1.00, 468.4, 17.0)">n</text><text xml:space="preserve" font-family="DINAlternate-Bold" font-weight="bold" font-size="74.0" fill="#FFFFFF" transform="matrix(1.00, 0.00, -0.00, -1.00, 508.2, 17.0)">i</text></g></g></g></svg>