<?xml version="1.0" encoding="UTF-8" standalone="no"?><svg xmlns="http://www.w3.org/2000/svg" xmlns:xlink="http://www.w3.org/1999/xlink" clip-rule="evenodd" stroke-miterlimit="4.00" viewBox="0 0 223 32"><desc>SVG generated by Keynote</desc><defs></defs><g transform="matrix(1.00, 0.00, -0.00, -1.00, 0.0, 32.0)"><text xml:space="preserve" font-family="Menlo-Regular" font-size="28.0" fill="#838686" transform="matrix(1.00, 0.00, -0.00, -1.00, 0.5, 9.0)">&lt;</text><text xml:space="preserve" font-family="Menlo-Regular" font-size="28.0" fill="#838686" transform="matrix(1.00, 0.00, -0.00, -1.00, 16.2, 9.0)">g</text><text xml:space="preserve" font-family="Menlo-Regular" font-size="28.0" fill="#838686" transform="matrix(1.00, 0.00, -0.00, -1.00, 32.0, 9.0)"> </text><text xml:space="preserve" font-family="Menlo-Regular" font-size="28.0" fill="#838686" transform="matrix(1.00, 0.00, -0.00, -1.00, 47.7, 9.0)">i</text><text xml:space="preserve" font-family="Menlo-Regular" font-size="28.0" fill="#838686" transform="matrix(1.00, 0.00, -0.00, -1.00, 63.4, 9.0)">d</text><text xml:space="preserve" font-family="Menlo-Regular" font-size="28.0" fill="#838686" transform="matrix(1.00, 0.00, -0.00, -1.00, 79.2, 9.0)">=</text><text xml:space="preserve" font-family="Menlo-Regular" font-size="28.0" fill="#838686" transform="matrix(1.00, 0.00, -0.00, -1.00, 94.9, 9.0)">"</text><text xml:space="preserve" font-family="Menlo-Regular" font-size="28.0" fill="#838686" transform="matrix(1.00, 0.00, -0.00, -1.00, 110.7, 9.0)">g</text><text xml:space="preserve" font-family="Menlo-Regular" font-size="28.0" fill="#838686" transform="matrix(1.00, 0.00, -0.00, -1.00, 126.4, 9.0)">r</text><text xml:space="preserve" font-family="Menlo-Regular" font-size="28.0" fill="#838686" transform="matrix(1.00, 0.00, -0.00, -1.00, 142.1, 9.0)">o</text><text xml:space="preserve" font-family="Menlo-Regular" font-size="28.0" fill="#838686" transform="matrix(1.00, 0.00, -0.00, -1.00, 157.9, 9.0)">u</text><text xml:space="preserve" font-family="Menlo-Regular" font-size="28.0" fill="#838686" transform="matrix(1.00, 0.00, -0.00, -1.00, 173.6, 9.0)">p</text><text xml:space="preserve" font-family="Menlo-Regular" font-size="28.0" fill="#838686" transform="matrix(1.00, 0.00, -0.00, -1.00, 189.4, 9.0)">"</text><text xml:space="preserve" font-family="Menlo-Regular" font-size="28.0" fill="#838686" transform="matrix(1.00, 0.00, -0.00, -1.00, 205.1, 9.0)">&gt;</text></g></svg>